<svg xmlns="http://www.w3.org/2000/svg" viewBox="0 0 35 35"><defs><style>.a{fill:rgba(255,255,255,0);stroke:#fff;}.b{fill:#fff;}.c{stroke:none;}.d{fill:none;}</style></defs><g transform="translate(-17 -323)"><g class="a" transform="translate(17 323)"><circle class="c" cx="17.5" cy="17.5" r="17.5"/><circle class="d" cx="17.5" cy="17.5" r="17"/></g><g transform="translate(25.712 330.118)"><path class="b" d="M9.635,66.959a2.408,2.408,0,0,0,2.36,2H20.3a2.4,2.4,0,0,0,2.36-2L24.4,52.8H7.9ZM20,54.615a.706.706,0,0,1,.776-.625.692.692,0,0,1,.657.738l-1.013,11.38a.72.72,0,0,1-1.433-.123Zm-4.569.062a.712.712,0,0,1,1.422,0v11.38a.712.712,0,0,1-1.422,0Zm-3.9-.687a.712.712,0,0,1,.776.625l1.013,11.38a.69.69,0,0,1-.647.738.705.705,0,0,1-.776-.615l-1.013-11.38A.7.7,0,0,1,11.531,53.989Z" transform="translate(-7.049 -47.397)"/><path class="b" d="M69.244,1.423a.763.763,0,0,0,.032-.226V1.146A1.078,1.078,0,0,0,68.178.1H65.7a1.078,1.078,0,0,0-1.1,1.046V1.2a.764.764,0,0,0,.032.226Z" transform="translate(-57.639 -0.1)"/><path class="b" d="M16.465,22.1H1.735A1.56,1.56,0,0,0,0,23.576V24.2H18.2v-.625A1.554,1.554,0,0,0,16.465,22.1Z" transform="translate(0 -19.844)"/></g></g></svg>