<svg xmlns="http://www.w3.org/2000/svg" viewBox="0 0 23.834 25"><path class="a" d="M11.913,0A11.913,11.913,0,0,0,3.57,20.418a14.414,14.414,0,0,1-3.05,4.12c-.286.242-.213.447.161.462a19.719,19.719,0,0,0,5.953-1.386c.455-.154.887-.315,1.29-.469A11.917,11.917,0,1,0,11.913,0Zm.081,19.127a1.568,1.568,0,0,1-1.562-1.562,1.573,1.573,0,1,1,1.562,1.562Zm3.138-7.918-1.481,1.965a1.863,1.863,0,0,0-.359,1.019v.418h-2.6v-.6a3.086,3.086,0,0,1,.762-2.082l1.481-1.9a2.385,2.385,0,0,0,.579-1.342,1.553,1.553,0,0,0-1.62-1.642,1.525,1.525,0,0,0-1.6,1.664h-2.6a3.94,3.94,0,0,1,4.2-4,3.956,3.956,0,0,1,4.223,4A4,4,0,0,1,15.132,11.21Z"/></svg>