<svg xmlns="http://www.w3.org/2000/svg" viewBox="0 0 86 86"><g transform="translate(-49 -240)"><circle class="a" cx="43" cy="43" r="43" transform="translate(49 240)"/><g transform="translate(65.778 258.849)"><path class="b" d="M0,11.946c0-.052,0-.052.052-.1a11.757,11.757,0,0,0,4.663-.524,21.02,21.02,0,0,0,7.493-4.3c1.31-1.153,2.567-2.358,3.877-3.563a2.31,2.31,0,0,1,2.2-.786,2.578,2.578,0,0,1,1.467,1.205c.419.576.786,1.205,1.205,1.834.891,1.258,1.781,3.249,3.406,3.144a11.955,11.955,0,0,0,0-1.939c-.21-.21-.472-.314-.681-.524a3.757,3.757,0,0,1,.1-5.5A5.7,5.7,0,0,1,25.674,0h1.048c.262.1.524.157.786.262a3.564,3.564,0,0,1,2.305,2.777,3.73,3.73,0,0,1-1.781,3.982,7.562,7.562,0,0,0,0,1.886c1.834.1,2.777-2.1,3.668-3.511.419-.629.838-1.31,1.31-1.886a2.714,2.714,0,0,1,1.1-.734,1.751,1.751,0,0,1,1.781.472c.734.629,1.415,1.258,2.148,1.939A29.52,29.52,0,0,0,44.9,10.27a13.713,13.713,0,0,0,7.44,1.624V12l-.157.157a5.067,5.067,0,0,1-5.292,2.62.967.967,0,0,0-.891.262,2.419,2.419,0,0,1-.786.472,5.456,5.456,0,0,1-4.611.052.727.727,0,0,0-.472,0,4.508,4.508,0,0,1-4.454.21.84.84,0,0,0-.786.052,4.31,4.31,0,0,1-4.139.21.722.722,0,0,0-.472,0,4.3,4.3,0,0,1-2.253.629h-.524V25.57c.21-.052.367-.1.576-.157,1.991-.524,4.035-1,6.026-1.572a23.991,23.991,0,0,0,4.558-1.729c.21-.1.367-.262.681-.472a12.9,12.9,0,0,0-1.415-.419,32.832,32.832,0,0,0-6.812-.367,1.918,1.918,0,0,1-2.1-1.258,1.019,1.019,0,0,1,.629-1.258,3.108,3.108,0,0,1,1.205-.262q1.808-.079,3.615,0a21.808,21.808,0,0,1,5.816.681,5.411,5.411,0,0,1,2.567,1.415c.943,1.048,1.048,1.834.367,2.882a6.712,6.712,0,0,1-1.362,1.362,12.276,12.276,0,0,1-4.035,1.834c-2.1.576-4.192,1.048-6.288,1.572-.21.052-.419.1-.681.157.157.157.262.21.367.314a6.769,6.769,0,0,1,2.463,3.668,3.994,3.994,0,0,1-.681,3.668,11.239,11.239,0,0,1-2.829,2.62c-.576.419-1.205.786-1.781,1.153v.052l.157.157a16.475,16.475,0,0,1,3.563,3.3,4.283,4.283,0,0,1,.524,4.873,10.255,10.255,0,0,1-3.406,3.773c-.472.314-1,.629-1.467.943h-.1c.262-.472.524-.891.734-1.362A13.815,13.815,0,0,0,30.128,47.1a3.43,3.43,0,0,0-.052-1.624,6.941,6.941,0,0,0-2.305-3.039,5.1,5.1,0,0,0-.786-.576c0,.21-.052.367-.052.524-.052,2.1-.052,4.192-.1,6.34a2.988,2.988,0,0,1-.052.681,1.058,1.058,0,0,1-1,.838,1.07,1.07,0,0,1-1.048-.786,3.538,3.538,0,0,1-.1-.734c-.052-2.2-.052-4.4-.1-6.55a1.023,1.023,0,0,0-.052-.367c-.052-.052-.1-.052-.1-.1-.734.681-1.52,1.362-2.2,2.1a3.767,3.767,0,0,0-.786,4.3c.472,1.048,1,2.043,1.467,3.091.21.419.419.838.681,1.31-.21-.1-.367-.262-.576-.367a10.006,10.006,0,0,1-4.3-4.3,4.136,4.136,0,0,1-.052-3.982,9,9,0,0,1,2.41-2.829c.629-.524,1.258-1,1.939-1.572a7.755,7.755,0,0,1-.681-.419,13.327,13.327,0,0,1-4.139-3.511,3.777,3.777,0,0,1-.734-2.882,6.9,6.9,0,0,1,2.62-4.3l.367-.367c-.891-.21-1.677-.367-2.515-.524A34.644,34.644,0,0,1,11,25.36a6.866,6.866,0,0,1-2.62-1.781,2.39,2.39,0,0,1-.734-1.991,3.015,3.015,0,0,1,1.258-1.834,7.486,7.486,0,0,1,3.773-1.362c2.358-.21,4.663-.314,7.021-.367a6.339,6.339,0,0,1,1.939.367,1.007,1.007,0,0,1,.576,1.415,1.854,1.854,0,0,1-1.991,1.1,33.027,33.027,0,0,0-6.812.367,13.122,13.122,0,0,0-1.362.367v.21a18.972,18.972,0,0,0,2.1,1A73.9,73.9,0,0,0,24.1,25.622V16.557a4.32,4.32,0,0,1-2.829-.681c-.052-.052-.262,0-.314.052a4.342,4.342,0,0,1-4.087-.1,1.064,1.064,0,0,0-.891-.052,4.371,4.371,0,0,1-4.244-.157.644.644,0,0,0-.681-.052,5.319,5.319,0,0,1-5.082-.419,2,2,0,0,0-1.415-.367A4.82,4.82,0,0,1,.681,13.414C.734,12.994.367,12.47,0,11.946Zm24.836,17.5a5.241,5.241,0,0,0-3.091,2.1,2.813,2.813,0,0,0-.21,2.725,2.863,2.863,0,0,0,.943,1c.734.524,1.52,1,2.305,1.52C24.836,34.32,24.836,31.909,24.836,29.447Zm2.672.1v7.074c.052,0,.1-.052.157-.052.681-.419,1.31-.838,1.939-1.258,1.31-.891,1.415-1.991.838-3.406C29.918,30.6,28.766,30.076,27.508,29.552Z"/></g></g></svg>