<svg xmlns="http://www.w3.org/2000/svg" viewBox="-265 13 35 35"><path class="a" d="M17.5,0A17.5,17.5,0,1,0,35,17.5,17.505,17.505,0,0,0,17.5,0Zm4.521,6.126c.426.234.852.451,1.3.694-.443.786-.861,1.58-1.3,2.39-.443-.234-.861-.468-1.3-.694C21.16,7.714,21.578,6.945,22.021,6.126Zm-5.148-.677H18.3V8.031H16.873Zm-3.794.669c.435.8.852,1.588,1.287,2.39-.435.234-.844.46-1.3.694-.435-.794-.861-1.58-1.3-2.39C12.218,6.569,12.636,6.351,13.079,6.117ZM6.97,14.45H9.92V15.87H6.97Zm1.421,6.46c-.209-.46-.4-.886-.6-1.337.878-.393,1.73-.777,2.624-1.178.2.451.4.878.61,1.337ZM10.4,12.085c-.786-.56-1.554-1.112-2.34-1.671.284-.393.56-.777.861-1.2l2.34,1.671C10.981,11.291,10.714,11.675,10.4,12.085Zm5.165,16.063h3.961C18.01,29.451,17.149,29.643,15.569,28.147Zm3.9-.685H15.653c-.4,0-.652-.209-.652-.543s.242-.543.652-.543h3.819c.4,0,.627.209.618.56S19.865,27.462,19.472,27.462Zm.209-1.78h-.075c-.71.008-1.4,0-2.089,0H15.494a.529.529,0,0,1-.1-1.053h4.2a.527.527,0,0,1,.585.468v.059A.508.508,0,0,1,19.681,25.682Zm2.9-6.694c-.326.577-.652,1.137-.978,1.7a6.533,6.533,0,0,0-1.086,3.151H19.08L16,23.868H14.717a.2.2,0,0,1-.142-.159,6.184,6.184,0,0,0-.978-2.816c-.5-.894-1.028-1.772-1.463-2.691a6.34,6.34,0,0,1-.527-4.145,5.207,5.207,0,0,1,3.176-3.936A6.614,6.614,0,0,1,20.7,10.3a5.3,5.3,0,0,1,2.917,4.822A7.329,7.329,0,0,1,22.581,18.988ZM26.166,9.21c.293.4.56.786.861,1.2-.777.56-1.546,1.112-2.332,1.671-.293-.4-.568-.777-.861-1.2C24.62,10.321,25.381,9.77,26.166,9.21Zm.56,11.708c-.894-.359-1.755-.71-2.633-1.07.184-.468.368-.9.552-1.362.878.351,1.738.71,2.633,1.07C27.094,20.024,26.91,20.467,26.726,20.918Zm1.4-5.048H25.189V14.45H28.13Z" transform="translate(-265 13)"/></svg>