<svg xmlns="http://www.w3.org/2000/svg" viewBox="-280.926 73.074 65.852 65.852"><g transform="translate(-435)"><path class="a" d="M32.926,0A32.926,32.926,0,1,1,0,32.926,32.926,32.926,0,0,1,32.926,0Z" transform="translate(154.074 73.074)"/><g transform="translate(170.026 88.945)"><path class="b" d="M33.418,21.4l.582-4.4-4.293-1.676-.873-3.227L31.715,8.5l-2.7-3.518L24.8,6.842,21.91,5.166,21.4.6l-4.4-.6L15.317,4.293l-3.227.873L8.5,2.271l-3.532,2.7,1.856,4.21L5.152,12.09.582,12.6,0,16.993l4.293,1.676L5.166,21.9,2.285,25.483,4.986,29,9.2,27.145,12.09,28.82l.512,4.57,4.4.582,1.676-4.293,3.227-.873L25.5,31.687l3.518-2.7-1.856-4.21,1.676-2.895ZM16.993,23.668a6.675,6.675,0,1,1,6.675-6.675A6.679,6.679,0,0,1,16.993,23.668Z"/></g></g></svg>