<svg xmlns="http://www.w3.org/2000/svg" viewBox="0 0 86 86"><g transform="translate(-49 -600)"><circle class="a" cx="43" cy="43" r="43" transform="translate(49 600)"/><path class="b" d="M58.378,14c-1.5-.405-2.066-.648-2.674-1.783L53.719,8.164a5.3,5.3,0,0,0-3.768-2.431H47.237a.357.357,0,0,1-.365-.365V2.29A2.188,2.188,0,0,0,44.563-.1h-22.2c-2.269,0-3.322,1.094-3.322,2.39V5.248H4.213a1.3,1.3,0,0,0,0,2.593H19.041v2.228H7.09a1.3,1.3,0,1,0,0,2.593H19.041v1.9H1.3a1.3,1.3,0,1,0,0,2.593H19.041v5.429a2.4,2.4,0,0,0,2.39,2.39h1.458a5.574,5.574,0,0,0,11.1,0c.041,0,.081.041.122.041H44.725c.2,0,.2-.162.2-.243a3.485,3.485,0,0,1,.041-.648v.405a5.561,5.561,0,0,0,11.1.486H58.54a2.351,2.351,0,0,0,2.35-2.35V18.09C60.849,14.322,59.674,14.322,58.378,14ZM28.4,28.1a3.687,3.687,0,1,1,3.687-3.687A3.7,3.7,0,0,1,28.4,28.1ZM46.873,7.516s0-.243.365-.243H49.3a4.036,4.036,0,0,1,3.281,1.985l1.9,3.849a3.561,3.561,0,0,0,.243.405c.081.081-.041.243-.324.243H47.2a.33.33,0,0,1-.324-.284ZM50.478,28.1a3.687,3.687,0,1,1,3.687-3.687A3.7,3.7,0,0,1,50.478,28.1Z" transform="translate(56.107 627.92)"/></g></svg>