<svg xmlns="http://www.w3.org/2000/svg" viewBox="81 498 86 86"><g transform="translate(36)"><circle class="a" cx="43" cy="43" r="43" transform="translate(45 498)"/><path class="b" d="M41.982,18.852h-15.9a1.278,1.278,0,0,1-1.212-.776l-1.018-1.988L21.039,23.7a1.419,1.419,0,0,1-1.309.921h-.048a1.3,1.3,0,0,1-1.26-.97l-3.1-9.4-1.5,3.733a1.359,1.359,0,0,1-1.26.873H7.369a1.357,1.357,0,1,1,0-2.715h4.266L14.2,9.786a1.375,1.375,0,0,1,1.309-.873,1.339,1.339,0,0,1,1.26.97l3.054,9.259L22.4,12.21a1.3,1.3,0,0,1,1.212-.873,1.385,1.385,0,0,1,1.309.776l2.036,4.072H37.279a14.206,14.206,0,0,0,1.067-5.526c0-5.236-2.909-9.453-8.387-10.471C21.621-1.364,19.2,7.12,19.2,7.12S16.773-1.412,8.435.188C2.957,1.206.048,5.423,0,10.562-.049,23.845,19.2,33.3,19.2,33.3s9.744-4.8,15.368-12.362h7.369A1.076,1.076,0,0,0,43,19.87,1.136,1.136,0,0,0,41.982,18.852Z" transform="translate(69.621 526.723)"/></g></svg>