<svg xmlns="http://www.w3.org/2000/svg" viewBox="0 0 21 17.297"><path class="a" d="M20.433,9.189h-.568V6.973a.832.832,0,0,0-.081-.351H20.3a.525.525,0,0,0,.514-.459l.054-.757c.027-.378.108-.459-.432-.459H19.27a.549.549,0,0,0-.459.3L18.3,1.324A1.168,1.168,0,0,0,17.46.405,38.314,38.314,0,0,0,10.514,0,38.134,38.134,0,0,0,3.541.405a1.168,1.168,0,0,0-.838.919L2.162,5.243a.5.5,0,0,0-.459-.3H.541c-.541,0-.459.108-.432.459l.054.757a.5.5,0,0,0,.514.459h.514a.748.748,0,0,0-.081.351V9.189H.541A.542.542,0,0,0,0,9.73v7.027a.542.542,0,0,0,.541.541h2.27a.542.542,0,0,0,.541-.541V14.973h14.3v1.784a.542.542,0,0,0,.541.541h2.27A.542.542,0,0,0,21,16.757V9.73A.585.585,0,0,0,20.433,9.189ZM3.973,2.3a.925.925,0,0,1,.7-.757,33.2,33.2,0,0,1,5.811-.324,33.6,33.6,0,0,1,5.811.324A.96.96,0,0,1,17,2.3l.486,3.838h-14ZM5.054,8.838a.6.6,0,0,1-.595.595h-1.3a.6.6,0,0,1-.595-.595V7.973a.6.6,0,0,1,.595-.595h1.3a.6.6,0,0,1,.595.595ZM14.838,11H6.595v-.595h8.243Zm0-1.243H6.595V9.162h8.243Zm0-1.27H6.595V7.892h8.243Zm3.541.351a.6.6,0,0,1-.595.595h-1.3a.6.6,0,0,1-.595-.595V7.973a.6.6,0,0,1,.595-.595h1.3a.6.6,0,0,1,.595.595Z"/></svg>