<svg xmlns="http://www.w3.org/2000/svg" viewBox="-386 423 86 86"><g transform="translate(-435)"><circle class="a" cx="43" cy="43" r="43" transform="translate(49 423)"/><g transform="translate(66.217 444.227)"><circle class="b" cx="9.386" cy="9.386" r="9.386" transform="translate(16.739)"/><circle class="b" cx="6.649" cy="6.649" r="6.649" transform="translate(36.431 7.822)"/><circle class="b" cx="6.649" cy="6.649" r="6.649" transform="translate(2.503 7.822)"/><path class="b" d="M23.253,311.375A8.206,8.206,0,0,0,17.21,308.5c-5.084,0-9.21,5.26-9.21,11.733H19.85A19.861,19.861,0,0,1,23.253,311.375Z" transform="translate(-8 -285.719)"/><path class="b" d="M200.5,320.233h11.85c0-6.473-4.126-11.733-9.21-11.733a8.136,8.136,0,0,0-6.042,2.875A19.861,19.861,0,0,1,200.5,320.233Z" transform="translate(-160.122 -285.719)"/><path class="b" d="M101.412,316.426c0-9.073-5.769-16.426-12.906-16.426S75.6,307.353,75.6,316.426Z" transform="translate(-62.381 -278.881)"/></g></g></svg>