<svg xmlns="http://www.w3.org/2000/svg" viewBox="0 0 86 86"><g transform="translate(-49 -423)"><circle class="a" cx="43" cy="43" r="43" transform="translate(49 423)"/><g transform="translate(70.73 444.752)"><path class="b" d="M9.551,23.038,3.784,28.805a12.629,12.629,0,0,0-.192,17.813h0a12.633,12.633,0,0,0,17.813-.32l5.767-5.767a.833.833,0,0,0,0-1.217l-16.4-16.275A.787.787,0,0,0,9.551,23.038Z" transform="translate(0 -8.169)"/><path class="b" d="M45.713,3.528h0a12.633,12.633,0,0,0-17.813.32L20.852,10.96a.833.833,0,0,0,0,1.217L37.191,28.453a.891.891,0,0,0,1.217,0l7.048-7.112A12.573,12.573,0,0,0,45.713,3.528Zm-6.856,18.71a1.337,1.337,0,0,1-1.922.064,1.394,1.394,0,0,1,0-1.922,1.337,1.337,0,0,1,1.922-.064A1.393,1.393,0,0,1,38.857,22.238ZM42.7,18.265a1.047,1.047,0,0,1-1.538-.064h0a.951.951,0,0,1,.128-1.41,7.267,7.267,0,0,0,2.691-4.934,5.918,5.918,0,0,0-1.089-3.4,1.065,1.065,0,0,1,.064-1.346h0a.994.994,0,0,1,1.6.128A7.7,7.7,0,0,1,46.1,11.986,9.667,9.667,0,0,1,42.7,18.265Z" transform="translate(-7.392 0)"/></g></g></svg>