<svg xmlns="http://www.w3.org/2000/svg" viewBox="-386 600 86 86"><g transform="translate(-435)"><circle class="a" cx="43" cy="43" r="43" transform="translate(49 600)"/><g transform="translate(70.02 623.821)"><path class="b" d="M40.7,6.105h7.926V4.017S48.733,0,44.663,0,40.7,4.017,40.7,4.017Z" transform="translate(-18.903)"/><path class="b" d="M46,24.965,37.06,16.718A4.525,4.525,0,0,0,34.49,15.7H1.5A1.532,1.532,0,0,0,0,17.2V38.3a1.5,1.5,0,0,0,1.5,1.5H5.248a6.054,6.054,0,0,0,12.1,0H30.259a6.054,6.054,0,0,0,12.1,0h3.32a1.5,1.5,0,0,0,1.5-1.5V27.429A3.963,3.963,0,0,0,46,24.965ZM11.3,42.21a2.517,2.517,0,1,1,2.517-2.517A2.514,2.514,0,0,1,11.3,42.21Zm8.462-13.389H15.531V33H11.407V28.768H7.176V24.644h4.231V20.413h4.124v4.231h4.231ZM36.311,42.21a2.517,2.517,0,1,1,2.517-2.517A2.585,2.585,0,0,1,36.311,42.21Zm7.123-12.853H32.883a1.212,1.212,0,0,1-1.232-1.232V20.948a1.212,1.212,0,0,1,1.232-1.232H34.65a3.751,3.751,0,0,1,2.142.8L43.7,26.679a2.843,2.843,0,0,1,.91,1.767A1.091,1.091,0,0,1,43.433,29.357Z" transform="translate(0 -7.292)"/></g></g></svg>