<svg xmlns="http://www.w3.org/2000/svg" viewBox="0 0 20 12"><defs><style>.a{fill:#fff;}</style></defs><g transform="translate(22.197 -7.497) rotate(90)"><path class="a" d="M11.779,10.6l-.736.707L2.209,19.788h0A.856.856,0,0,1,1.62,20a.856.856,0,0,1-.589-.212h0l-.736-.707h0A.634.634,0,0,1,0,18.516a.784.784,0,0,1,.221-.565h0l8.245-7.915L.221,2.12h0A.784.784,0,0,1,0,1.555.784.784,0,0,1,.221.989h0L.957.283h0A.917.917,0,0,1,1.62,0a.856.856,0,0,1,.589.212h0l8.834,8.481.736.707h0A.784.784,0,0,1,12,9.965a.843.843,0,0,1-.221.636Z" transform="translate(7.497 2.197)"/></g></svg>