<svg xmlns="http://www.w3.org/2000/svg" viewBox="0 0 86 86"><g transform="translate(-49 -600)"><circle class="a" cx="43" cy="43" r="43" transform="translate(49 600)"/><g transform="translate(69.819 620.867)"><path class="b" d="M41.7,6.478H31.923V4.9C31.77,1.743,30.141.063,26.984.063c-3.055-.051-6.059-.051-9.114,0a4.282,4.282,0,0,0-4.277,3.055,15.431,15.431,0,0,0-.255,3.36c.153-.1-5.6-.051-9.826-.051A3.52,3.52,0,0,0,0,9.94c0,4.633,0,11,0,11.456H14.358V18.239a2.9,2.9,0,0,1,2.9-2.9H28.41a2.9,2.9,0,0,1,2.9,2.9V21.4h13.95V9.991A3.564,3.564,0,0,0,41.7,6.478Zm-11.965.1H15.478c-.356-3.157.509-4.531,3.411-4.582h7.484C29.275,2,30.09,3.373,29.733,6.58Z" transform="translate(0 0)"/><path class="b" d="M31.312,46.1v3.564a2.9,2.9,0,0,1-2.9,2.9H17.26a2.9,2.9,0,0,1-2.9-2.9V46.1H0V56.945a4.933,4.933,0,0,0,4.939,4.888H40.323a4.933,4.933,0,0,0,4.939-4.888V46.1Z" transform="translate(0 -22.617)"/><path class="b" d="M44.557,38.209h-2.6v-2.6a.7.7,0,0,0-.713-.713H39.822a.7.7,0,0,0-.713.713v2.6h-2.6a.7.7,0,0,0-.713.713v1.426a.7.7,0,0,0,.713.713h2.6v2.6a.7.7,0,0,0,.713.713h1.426a.7.7,0,0,0,.713-.713v-2.6h2.6a.7.7,0,0,0,.713-.713V38.922A.7.7,0,0,0,44.557,38.209Z" transform="translate(-17.573 -17.119)"/><path class="b" d="M14.539,8.529H10.364A.783.783,0,0,1,9.6,7.766v-.1a.783.783,0,0,1,.764-.764h4.175a.783.783,0,0,1,.764.764v.153A.74.74,0,0,1,14.539,8.529Z" transform="translate(-4.712 -3.375)"/><path class="b" d="M72.239,8.529H68.064a.783.783,0,0,1-.764-.764v-.1a.783.783,0,0,1,.764-.764h4.175A.783.783,0,0,1,73,7.664v.153A.74.74,0,0,1,72.239,8.529Z" transform="translate(-33.035 -3.375)"/></g></g></svg>