<svg xmlns="http://www.w3.org/2000/svg" viewBox="0 0 25 25"><defs><style>.a{fill:#40d000;}.b{fill:#fff;fill-rule:evenodd;}</style></defs><g transform="translate(-320 -296)"><circle class="a" cx="12.5" cy="12.5" r="12.5" transform="translate(320 296)"/><path class="b" d="M.219,7.82,3.2,10.953s1.378,1.586,2.4,0c.533-.822,1.805-2.851,2.91-4.8A32.911,32.911,0,0,1,12.539.074C11.47-.533,9.343.826,7.7,3.336,6.911,4.542,5.227,7.15,4.636,8.075c-.133.208-.3.243-.446.1-.446-.446-1.414-1.425-1.841-1.927-.09-.106-.235-.258-.305-.337a.605.605,0,0,0-.768-.07,3.911,3.911,0,0,0-.4.333A6.67,6.67,0,0,0,.1,6.959.575.575,0,0,0,.219,7.82Z" transform="translate(326.65 302.74)"/></g></svg>