<svg xmlns="http://www.w3.org/2000/svg" viewBox="0 0 86 86"><g transform="translate(-235 -595)"><circle class="a" cx="43" cy="43" r="43" transform="translate(235 595)"/><g transform="translate(264.049 618.687)"><g transform="translate(0 -0.048)"><g transform="translate(0 0)"><path class="b" d="M2.83,13.716A16.927,16.927,0,0,1,4.22,7.394C5.771,3.947,8.118,1.35,11.754.311c4.031-1.151,8.207.523,10.92,4.254a16.34,16.34,0,0,1,3,8.646c.011.15.028.295.044.5.317.028.623.044.929.078A1.91,1.91,0,0,1,28.5,15.924V34.117c0,1.674-.7,2.408-2.341,2.408q-11.109.008-22.224,0c-.606,0-1.212.017-1.818-.006A1.99,1.99,0,0,1,0,34.25V16.279c0-1.785.589-2.424,2.319-2.519C2.463,13.755,2.6,13.738,2.83,13.716ZM6.883,13.7H21.29c-.206-3.319-.589-6.211-3.281-8.285a6.335,6.335,0,0,0-8.24.284C7.378,7.806,7.028,10.547,6.883,13.7Zm5.466,13.622c0,.4-.017.8.006,1.2.05.99.606,1.446,1.735,1.44s1.69-.45,1.724-1.44a19.037,19.037,0,0,0-.006-1.952,1.441,1.441,0,0,1,.584-1.323,3.692,3.692,0,0,0,.234-5.282,3.452,3.452,0,0,0-5.071-.006,3.7,3.7,0,0,0,.228,5.282,1.368,1.368,0,0,1,.578,1.323A5.721,5.721,0,0,0,12.349,27.322Z" transform="translate(0 0.048)"/></g></g></g></g></svg>