<svg xmlns="http://www.w3.org/2000/svg" viewBox="0 0 86 86"><g transform="translate(-49 -600)"><circle class="a" cx="43" cy="43" r="43" transform="translate(49 600)"/><path class="b" d="M35.289,28.79c-1.122-8.122-5.183-12.648-10.6-17.56a10.957,10.957,0,0,0-1.276-1.044c1.2-.271,2.591-.348,3.365.541a5.946,5.946,0,0,0,4.6,1.624A16.383,16.383,0,0,0,34.516,12a1,1,0,0,0,.735-1.238.986.986,0,0,0-1.122-.7c-1.392.271-3.6.541-4.989-.039a8.791,8.791,0,0,0,2.63-.348,17.216,17.216,0,0,0,2.939-1.16.977.977,0,1,0-.89-1.74c-1.586.812-4.371,1.9-5.8.928a4.944,4.944,0,0,0-4.912.039l1.16-3.442a1.535,1.535,0,0,0-2.2-1.663,1.374,1.374,0,0,0-.348.155C20.4,3.843,20.05,2.876,19.7,2.142L19.006.71A1.492,1.492,0,0,0,16.415.594L15.1,2.8c-.967,1.663-1.857.89-2.2.541a1.738,1.738,0,0,0-.619-.464c-1.16-.541-2.011.387-1.431,2.089.619,1.74,1.431,3.713,2.011,5.105-.5.309-1.238.851-2.359,1.7C5.159,15.988,1.369,21.21.286,28.79-.642,34.979.9,41.554,4.927,44.958c2.978,2.553,8.741,2.514,12.88,2.514,3.094,0,8.818-.232,11.371-1.74C35.212,42.173,36.295,36.139,35.289,28.79ZM22.6,36.255a.6.6,0,0,1-.58.58H13.011a.6.6,0,0,1-.58-.58V34.94a.665.665,0,0,1,.541-.658,2.743,2.743,0,0,0,.658-.155,2.755,2.755,0,0,0,.851-.58,2.209,2.209,0,0,0,.5-.812,2.884,2.884,0,0,0,.155-1.006,2.928,2.928,0,0,0-.039-.58.586.586,0,0,0-.58-.5H12.972a.6.6,0,0,1-.58-.58v-1.16a.6.6,0,0,1,.58-.58.571.571,0,0,0,.541-.774c-.039-.116-.077-.232-.116-.387a4.567,4.567,0,0,1-.193-1.547,4.674,4.674,0,0,1,.348-1.857,3.42,3.42,0,0,1,1.006-1.315,3.991,3.991,0,0,1,1.508-.774A7.53,7.53,0,0,1,18,21.4a11.466,11.466,0,0,1,2.4.232,8.953,8.953,0,0,1,1.315.387.591.591,0,0,1,.348.735l-.5,1.392a.6.6,0,0,1-.774.348,5.976,5.976,0,0,0-2.475-.464,2.337,2.337,0,0,0-1.624.5,1.787,1.787,0,0,0-.58,1.47,2.7,2.7,0,0,0,.271,1.276,7.67,7.67,0,0,0,.425.774.564.564,0,0,0,.5.271h2.127a.6.6,0,0,1,.58.58v1.16a.6.6,0,0,1-.58.58h-.851a.6.6,0,0,0-.58.58v.155a4.33,4.33,0,0,1-.232,1.354,3.129,3.129,0,0,1-.619,1.122c-.039.039-.077.039-.077.077l-.658.464,5.608-.039a.6.6,0,0,1,.58.58Z" transform="translate(74.193 616.817)"/></g></svg>