<svg xmlns="http://www.w3.org/2000/svg" viewBox="0 0 86 86"><g transform="translate(-235 -595)"><circle class="a" cx="43" cy="43" r="43" transform="translate(235 595)"/><g transform="translate(251.857 617.731)"><path class="b" d="M46.8,43.017s-.985-3.524-5.338-.933c-2.747,1.658-8.81,5.39-14.511,5.027-3.006-.155-5.079-1.451-7.152-2.384,3.628-.829,6.323-.777,8.448-2.28s1.658-4.042-1.3-3.68a19.257,19.257,0,0,1-5.338.207c-2.177-.1-2.9-.052-4.613-.155A16.505,16.505,0,0,0,3.11,45.3C1.866,46.438,0,48.1,0,48.1l7.929,9.536c5.027-3.421,7.929-3.68,14.563-2.28C29.074,56.8,42.083,48.718,46.8,43.017Z" transform="translate(2 -19.569)"/><path class="b" d="M49.175,4.068a3.842,3.842,0,0,0-3.258-4c-3.223-.6-4.179,2.692-4.179,2.692S40.781-.536,37.558.066a3.872,3.872,0,0,0-3.258,4c0,5.135,7.437,8.783,7.437,8.783S49.175,9.2,49.175,4.068Z" transform="translate(-13.224 -1.523)"/></g></g></svg>