<svg xmlns="http://www.w3.org/2000/svg" viewBox="0 0 86 86"><g transform="translate(-235 -682)"><circle class="a" cx="43" cy="43" r="43" transform="translate(235 682)"/><g transform="translate(261.355 709.355)"><path class="b" d="M30.345,12.187A10.33,10.33,0,0,0,20.068,8.715C14.964,3.611,7.881.174.833,0A.767.767,0,0,0,0,.833C.174,7.916,3.611,14.964,8.541,20.068a10.871,10.871,0,0,0,3.472,10.208,1.3,1.3,0,0,0,2.118-1.146,11.443,11.443,0,0,1,.347-4.305,21.3,21.3,0,0,0,2.465,1.319.728.728,0,0,0,.972-.174l8.229-8.229a.718.718,0,0,0,0-.833,9.872,9.872,0,0,0-1.319-2.291,12.331,12.331,0,0,1,4.34-.347A1.286,1.286,0,0,0,30.345,12.187ZM13.818,13.818a3.188,3.188,0,0,1-4.618,0A3.248,3.248,0,0,1,9.2,9.2a3.188,3.188,0,0,1,4.618,0A3.248,3.248,0,0,1,13.818,13.818Z"/><path class="b" d="M81.579,64.12a1.042,1.042,0,0,0,.729-1.771l-3.437-3.437a1.031,1.031,0,1,0-1.458,1.458l3.437,3.437A1,1,0,0,0,81.579,64.12Z" transform="translate(-50.331 -38.254)"/><path class="b" d="M64.12,81.579a1,1,0,0,0-.312-.729l-3.437-3.437a1.031,1.031,0,0,0-1.458,1.458l3.437,3.437a1.042,1.042,0,0,0,1.771-.729Z" transform="translate(-38.254 -50.331)"/><path class="b" d="M69.371,68.412a1.031,1.031,0,0,0-1.458,1.458l4.757,4.757a1.031,1.031,0,1,0,1.458-1.458Z" transform="translate(-44.13 -44.456)"/></g></g></svg>