<svg xmlns="http://www.w3.org/2000/svg" viewBox="165.279 89.279 115.441 115.441"><g transform="translate(165.279 89.279)"><g transform="translate(61.488 49.351)"><path class="a" d="M687.229,552.51a7.164,7.164,0,0,0,.519,4.492c.259.519,1.772,1.038,4.125,1.011,2.882-.036,5.343-.841,5.853-1.924a6.332,6.332,0,0,0,.438-4.385C695.489,551.221,689.744,551.526,687.229,552.51Z" transform="translate(-687.095 -551.479)"/></g><g transform="translate(46.534 35.554)"><path class="a" d="M530.855,411a12.758,12.758,0,0,0,1.324.063c.483,0,.966-.027,1.342-.063,2.2-1.154,6.175-1.611,9.513-1.62a20.9,20.9,0,0,1,3.938.313h.018a3.036,3.036,0,0,0,.394.018c-.054-.707-.107-1.4-.152-2.04.045-.286.1-.582.161-.877a18.544,18.544,0,0,0,.376-3.615,9.764,9.764,0,0,0-1.638-5.879c-3.848,5.835-19.965,2.407-26.131,12.117.438-.018.886-.036,1.36-.036C524.68,409.381,528.654,409.846,530.855,411Z" transform="translate(-520 -397.3)"/></g><g transform="translate(56.486 115.423)"><path class="a" d="M632.435,1289.818c.412,0,.823-.009,1.235-.018H631.2C631.612,1289.809,632.023,1289.818,632.435,1289.818Z" transform="translate(-631.2 -1289.8)"/></g><path class="a" d="M29.352,84.281A19.171,19.171,0,0,1,27.5,79.574c19.249-2.855-.617-20.887,9.9-46.391,2.891-9.056,11.795-14.614,21.137-14.569a26.107,26.107,0,0,1,11.616,2.336A10.459,10.459,0,0,1,75.779,27a10.692,10.692,0,0,1,2.577,2.837c3.311,4.412,3.508,11.276,3.043,18.524a10.286,10.286,0,0,1,.1,1.056,12.634,12.634,0,0,1-.394,2.917c-1.074,12.806-2.729,25.594,8.358,27.241a18.824,18.824,0,0,1-1.79,4.591c6.6,1.96,13.056,3.946,15.2,6.112a6.46,6.46,0,0,1,1.154,1.915,57.722,57.722,0,1,0-91.27,1.718,10.2,10.2,0,0,1,1.808-3.642C16.663,88.147,22.891,86.2,29.352,84.281Z"/><g transform="translate(44.137 44.931)"><path class="a" d="M525.919,502.1c-.018-.018-.054-.018-.107-.018a1.276,1.276,0,0,0-.716.34c.018.286-.107,5.047-.107,5.047l-1.4,2.864c0-.009,0-.009-.009-.018-.17.421-.34.841-.492,1.136-.063.125-.125.26-.2.4-1.136,2.228-4.77,2.81-7.615,2.882a1.529,1.529,0,0,0-.188.009c-1.28-.054-4.474-.018-5.521-1.852a7.962,7.962,0,0,1-.859-3.356c-.447.027-.734.027-.841.027h-.107c-.116,0-.394,0-.841-.027a8.118,8.118,0,0,1-.841,3.356c-1.065,1.835-4.26,1.8-5.539,1.844h-.206c-2.47-.063-5.548-.51-7.052-2.1a31.416,31.416,0,0,0-.009,3.794,16.882,16.882,0,0,0,4.412,8.564c5.978,5.9,6.461,5.736,10.085,5.781h.063s.009-.009.054-.009c3.624-.036,4.108.125,10.085-5.772,2.944-2.971,4.367-6.774,4.985-11.813l.43-.591.116-.089.573-.447a9.4,9.4,0,0,0,3.007-6.586,7.732,7.732,0,0,0-.134-1.45C526.743,502.846,526.224,502.148,525.919,502.1Z" transform="translate(-493.212 -502.084)"/></g><g transform="translate(44.745 49.355)"><path class="a" d="M506.443,558.043c2.362.027,3.857-.492,4.116-1.011a7.165,7.165,0,0,0,.528-4.492c-2.336-.9-7.41-1.226-10.264-.886a14.758,14.758,0,0,0-.823,2.371,5.629,5.629,0,0,0,.591,2.094C501.11,557.2,503.562,558.007,506.443,558.043Z" transform="translate(-500 -551.521)"/></g><g transform="translate(42.132 72.558)"><path class="a" d="M497.566,816.339a11.049,11.049,0,0,1-.582-5.539A19.987,19.987,0,0,1,493,813.86a9.351,9.351,0,0,1-4.546,1.029l-.018.018h-1.181a11.019,11.019,0,0,1-5.548-1.047,19.974,19.974,0,0,1-3.848-2.944,10.885,10.885,0,0,1-.582,5.423c-.17.3-6.479,6.578-6.479,6.578l16.618,11.07,16.627-11.07S497.727,816.644,497.566,816.339Z" transform="translate(-470.8 -810.8)"/></g><path class="b" d="M233.87,281.475a6.459,6.459,0,0,0-1.154-1.915c-2.148-2.157-8.6-4.143-15.2-6.112a19.137,19.137,0,0,0,1.79-4.591c-11.088-1.647-9.432-14.435-8.358-27.241a12.57,12.57,0,0,0,.394-2.917,8.424,8.424,0,0,0-.1-1.056c.465-7.249.268-14.112-3.043-18.524a10.691,10.691,0,0,0-2.577-2.837A10.459,10.459,0,0,0,200,210.233a26.231,26.231,0,0,0-11.616-2.336c-9.343-.045-18.247,5.513-21.137,14.569-10.515,25.5,9.343,43.537-9.9,46.391a18.733,18.733,0,0,0,1.852,4.707c-6.452,1.924-12.69,3.875-14.793,5.987a10.2,10.2,0,0,0-1.808,3.642,57.62,57.62,0,0,0,43.733,21.522h2.47A57.629,57.629,0,0,0,233.87,281.475ZM202.5,224.838a9.7,9.7,0,0,1,1.638,5.879,18.633,18.633,0,0,1-.376,3.615c-.063.3-.116.591-.161.877.045.635.1,1.333.152,2.04a3.036,3.036,0,0,1-.394-.018h-.018a21.68,21.68,0,0,0-3.938-.313c-3.329.009-7.3.465-9.513,1.62a12.189,12.189,0,0,1-1.342.063,12.758,12.758,0,0,1-1.324-.063c-2.21-1.145-6.175-1.611-9.5-1.62-.474,0-.922.018-1.36.036C182.539,227.245,198.647,230.672,202.5,224.838Zm-.546,18.408c-.51,1.083-2.971,1.888-5.853,1.924-2.354.027-3.866-.492-4.125-1.011a7.158,7.158,0,0,1-.519-4.492c2.515-.984,8.26-1.289,10.927-.805A6.28,6.28,0,0,1,201.958,243.245Zm-26.542-4.457c2.855-.34,7.929-.018,10.264.886a7.171,7.171,0,0,1-.528,4.492c-.26.519-1.754,1.038-4.117,1.011-2.882-.036-5.334-.841-5.853-1.924a5.582,5.582,0,0,1-.591-2.094A14.754,14.754,0,0,1,175.416,238.789Zm13.173,46.248-16.618-11.07s6.309-6.282,6.479-6.577a10.885,10.885,0,0,0,.582-5.423,19.977,19.977,0,0,0,3.848,2.944,10.83,10.83,0,0,0,5.548,1.047h1.181l.018-.018a9.476,9.476,0,0,0,4.546-1.029,20.247,20.247,0,0,0,3.982-3.061,10.949,10.949,0,0,0,.582,5.539c.17.3,6.479,6.577,6.479,6.577Zm16.251-40.852-.573.447-.116.089-.43.591c-.617,5.038-2.04,8.842-4.985,11.813-5.978,5.9-6.461,5.736-10.085,5.772-.045,0-.054.009-.054.009h-.063c-3.624-.045-4.108.116-10.085-5.781a16.882,16.882,0,0,1-4.412-8.564,28.148,28.148,0,0,1,.009-3.794c1.5,1.593,4.582,2.04,7.052,2.1h.206c1.271-.045,4.474-.009,5.53-1.843a8.118,8.118,0,0,0,.841-3.356c.447.027.725.027.841.027h.107c.116,0,.394,0,.841-.027a7.833,7.833,0,0,0,.859,3.356c1.056,1.835,4.242,1.8,5.521,1.852a1.6,1.6,0,0,1,.188-.009c2.846-.072,6.479-.653,7.616-2.882.072-.143.134-.277.2-.4.152-.3.331-.725.492-1.137,0,.009.009.009.009.018l1.4-2.864s.125-4.761.107-5.047a1.312,1.312,0,0,1,.716-.34c.063,0,.089,0,.107.018.3.045.823.743,1.029,1.906a7.048,7.048,0,0,1,.134,1.45A9.34,9.34,0,0,1,204.84,244.185Z" transform="translate(-129.839 -189.292)"/></g></svg>