<svg xmlns="http://www.w3.org/2000/svg" viewBox="0 0 86 86"><g transform="translate(-237 -1039)"><circle class="a" cx="43" cy="43" r="43" transform="translate(237 1039)"/><g transform="translate(267 1057.248)"><path class="b" d="M19.128,28.853a.7.7,0,0,0,.309.309c.088-.088.221-.177.265-.309.177-.442.353-1.679.619-2.96A42.139,42.139,0,0,1,24.96,14.67a21.967,21.967,0,0,1,3.623-5.126,6.609,6.609,0,0,1,2.3-1.635,4.1,4.1,0,0,0,.574-.177c-.486.486-.972.928-1.37,1.414a26.014,26.014,0,0,0-3.8,5.921A84.166,84.166,0,0,0,20.9,28.853c-.619,1.988-4.021,10.737-4.6,12.726a.162.162,0,0,1,.133.044h0a2.154,2.154,0,0,0,.133-.309c.884-1.723,4.6-10.207,5.479-11.93a8.172,8.172,0,0,1,1.281-2.121,13.94,13.94,0,0,1,1.281-.972c.707-.486,1.458-.884,2.209-1.326a6.311,6.311,0,0,0,2.342-2.474c.309-.619.663-1.237.972-1.856a7.422,7.422,0,0,1,1.856-2.386,4.32,4.32,0,0,0-2.607-.8,10.571,10.571,0,0,1,.928-.574,4.591,4.591,0,0,0,2.519-3.049,3.3,3.3,0,0,1,1.5-2.3c-.8.133-1.547.221-2.342.353a.7.7,0,0,1,.309-.309c.8-.619,1.591-1.193,2.386-1.856a6.065,6.065,0,0,0,2.253-3.756c.133-.619.088-1.281.177-1.9.133-.972.265-1.988.4-2.96A7.449,7.449,0,0,0,37.6,0a23.583,23.583,0,0,1-4.64,2.253c-1.06.442-2.077.84-3.093,1.37a7.422,7.422,0,0,0-3.933,4.463,6.834,6.834,0,0,0-.177.663c-.265-.53-.53-.928-.8-1.414a6.8,6.8,0,0,0-.574.53,10.576,10.576,0,0,0-2.828,5.479c-.265,1.193-.353,2.386-.53,3.535-.088.486-.177.928-.265,1.414h-.088c-.309-.751-.619-1.458-.928-2.253a3.3,3.3,0,0,0-.309.53c-.177.574-.4,1.149-.53,1.767a21.344,21.344,0,0,0-.044,6.5C18.907,25.628,18.951,28.058,19.128,28.853Z" transform="translate(-9.098)"/><path class="b" d="M16.944,75.335H9.167A1.773,1.773,0,0,1,7.4,73.567h0A1.773,1.773,0,0,1,9.167,71.8h7.777a1.773,1.773,0,0,1,1.767,1.767h0A1.773,1.773,0,0,1,16.944,75.335Z" transform="translate(-4.13 -40.074)"/><path class="b" d="M15.907,91.156H1.988A2.009,2.009,0,0,1,0,89.167V85.235A5.431,5.431,0,0,1,5.435,79.8h6.981a5.431,5.431,0,0,1,5.435,5.435v3.933A1.971,1.971,0,0,1,15.907,91.156Z" transform="translate(0 -44.54)"/></g></g></svg>