<svg xmlns="http://www.w3.org/2000/svg" viewBox="-188 13 35 35"><g transform="translate(-188 13)"><circle class="a" cx="4.028" cy="4.028" r="4.028" transform="translate(12.964 14.537) rotate(-13.286)"/><path class="a" d="M17.5,0A17.5,17.5,0,1,0,35,17.5,17.505,17.505,0,0,0,17.5,0ZM27.713,20.183l-2.758.309-1.011,1.747,1.12,2.541-2.123,1.63L20.776,24.67l-1.947.527-1.011,2.591-2.658-.351-.309-2.758L13.1,23.668l-2.541,1.12-1.63-2.123L10.672,20.5l-.527-1.947L7.555,17.542l.351-2.658,2.758-.309,1.011-1.747-1.12-2.549,2.123-1.63,2.165,1.738L16.8,9.862l1.011-2.591,2.658.351.309,2.758,1.747,1.011,2.541-1.12,1.63,2.123-1.738,2.165.527,1.947,2.591,1.011Z"/></g></svg>