<svg xmlns="http://www.w3.org/2000/svg" viewBox="0 0 50 33.583"><defs><style>.a{fill:#00b8e5;}.b{fill:#fff;}.c{fill:#00cdff;}</style></defs><g transform="translate(-0.002 -16.542)"><path class="a" d="M16.9,124.41v-6.84a2.172,2.172,0,0,1,2.171-2.171h8.252a2.176,2.176,0,0,1,2.007,1.341l.645,1.556a2.107,2.107,0,0,0,1.945,1.3H61.715a2.172,2.172,0,0,1,2.171,2.171v2.642Z" transform="translate(-15.168 -98.858)"/><path class="b" d="M115.62,0H85.037A1.141,1.141,0,0,0,83.9,1.137V27.368h32.867V1.137A1.143,1.143,0,0,0,115.62,0Z" transform="translate(-75.308 21.869)"/><path class="c" d="M2.346,193.4H47.653a2.406,2.406,0,0,1,2.324,2.775l-2.662,19.607A3.654,3.654,0,0,1,43.742,219H6.032a3.652,3.652,0,0,1-3.573-3.266L.022,196.144A2.4,2.4,0,0,1,2.346,193.4Z" transform="translate(0 -168.872)"/></g></svg>