<svg xmlns="http://www.w3.org/2000/svg" viewBox="271 682 86 86"><g transform="translate(36)"><circle class="a" cx="43" cy="43" r="43" transform="translate(235 682)"/><path class="b" d="M8.728,24.361v1.967c-.044,1.005-.481,1.486-1.486,1.486H3.352a1.3,1.3,0,0,1-1.486-1.486c0-3.41-.044-6.776,0-10.186a15.522,15.522,0,0,1,.35-2.229,11.432,11.432,0,0,1-1.224,0C.248,13.869-.015,13.476.2,12.777a9.156,9.156,0,0,1,.35-1.005A1.73,1.73,0,0,1,2.477,10.46c.874.087,1.224-.262,1.486-1.049.481-1.53,1.224-3.016,1.617-4.59C6.28,2.066,8.291.842,10.827.58A70.318,70.318,0,0,1,19.919.187,27.72,27.72,0,0,1,25.559.93,4.4,4.4,0,0,1,29.1,4.165c.612,1.923,1.4,3.8,2.1,5.727.175.525.437.7.918.656,1.967-.219,2.317,1.137,2.667,2.579.131.525-.219.831-.743.874a12.255,12.255,0,0,1-1.268,0c.612,4.109.175,8.131.306,12.153.044,1.4-.393,1.792-1.792,1.792h-3.5c-1.137,0-1.617-.481-1.617-1.617V24.492C20.269,24.361,14.543,24.361,8.728,24.361ZM28.75,10.984c-.7-2.1-1.4-3.978-1.967-5.9a2.463,2.463,0,0,0-2.1-1.88c-.306-.044-.568-.131-.874-.175a44,44,0,0,0-9.88-.35,33.148,33.148,0,0,0-4.109.568,2.263,2.263,0,0,0-1.443.918C7.5,6.35,6.805,8.58,5.974,10.94A54.781,54.781,0,0,0,28.75,10.984Zm-1.486,8.175v.087c.743-.044,1.486-.044,2.186-.131,1.53-.219,1.836-.568,1.792-2.1,0-1.4-.525-1.923-1.836-1.53a34.317,34.317,0,0,0-4.546,1.88,1.321,1.321,0,0,0-.481,1.137c.044.306.568.612.962.656C25.952,19.2,26.608,19.159,27.264,19.159Zm-19.89.087v-.087H9.166c.568,0,1.137-.087,1.268-.743.131-.7-.306-1.049-.831-1.311-1.18-.525-2.317-1.049-3.5-1.486-2.011-.7-2.579-.262-2.579,1.836,0,.962.262,1.355,1.18,1.53S6.5,19.159,7.373,19.246Z" transform="translate(259.87 710.824)"/></g></svg>