<svg xmlns="http://www.w3.org/2000/svg" viewBox="0 0 35 20.41"><g transform="translate(0.051 -0.024)"><path class="a" d="M174.587,68.1a5.224,5.224,0,0,0-2.507.634h0a5.307,5.307,0,1,0,2.507-.634Zm0,8.615a3.329,3.329,0,0,1-3.328-3.328,3.28,3.28,0,0,1,.951-2.319l.547,1.023a2.189,2.189,0,0,0-.418,1.311,2.247,2.247,0,1,0,2.247-2.247H174.5l-.547-1.023a3.053,3.053,0,0,1,.634-.058,3.321,3.321,0,1,1,0,6.641Z" transform="translate(-144.954 -58.269)"/><path class="a" d="M26.651,9.572a12.4,12.4,0,0,1,4.524-1.83c0-4.178-5.085-7.563-5.085-7.563A.625.625,0,0,0,25.2.251l-.375.591a.786.786,0,0,0,.173,1.124,16.568,16.568,0,0,1,2.1,2.42L24,5.726l-.288-.274L21.58,3.464a1.563,1.563,0,0,0-1.052-.389H16.667a2.432,2.432,0,0,0-1.5.864L13.642,5.711H10.6A3.945,3.945,0,0,1,7.807,4.04S7.231,3,6.352,3H3.385a.69.69,0,0,0-.576.432L.014,8.477a.272.272,0,0,0,.058.4L.2,9a.273.273,0,0,0,.432-.1l3.7-3.457,6.8,4.25a2.484,2.484,0,0,1,.893,1.268l.072.173-2.319,1.08c-.029-.058-.058-.1-.086-.158a5.295,5.295,0,1,0,.533,5.215,1.268,1.268,0,0,0,.072-.216l2.276.447a.638.638,0,0,0,.749-.5l.058-.274.619.13h.85a2.406,2.406,0,0,0,1.671.648h5.561c.418,0,.922-.144.936-1.08A7.821,7.821,0,0,1,26.651,9.572ZM5.373,18.446a3.328,3.328,0,1,1,1.815-6.123l-1.3.605a2.121,2.121,0,0,0-.519-.058,2.247,2.247,0,0,0,0,4.495,2.211,2.211,0,0,0,1.181-.331,1.7,1.7,0,0,0,.864.475l.216.043A3.28,3.28,0,0,1,5.373,18.446Z" transform="translate(0 0)"/></g></svg>