<svg xmlns="http://www.w3.org/2000/svg" viewBox="0 0 35 35"><defs><style>.a{fill:rgba(0,0,0,0.24);}.b,.e{fill:none;}.b{stroke:#fff;opacity:0.24;}.c,.d{stroke:none;}.d{fill:rgba(255,255,255,0.27);}</style></defs><g transform="translate(-241 -561)"><g class="a" transform="translate(241 561)"><path class="c" d="M17.5,0A17.5,17.5,0,1,1,0,17.5,17.5,17.5,0,0,1,17.5,0Z"/><path class="d" d="M 17.5 34 C 21.90731048583984 34 26.05081939697266 32.28369903564453 29.16725921630859 29.16725921630859 C 32.28369903564453 26.05081939697266 34 21.90731048583984 34 17.5 C 34 13.09269046783447 32.28369903564453 8.949179649353027 29.16725921630859 5.83273983001709 C 26.05081939697266 2.716300010681152 21.90731048583984 1 17.5 1 C 13.09269046783447 1 8.949179649353027 2.716300010681152 5.83273983001709 5.83273983001709 C 2.716300010681152 8.949179649353027 1 13.09269046783447 1 17.5 C 1 21.90731048583984 2.716300010681152 26.05081939697266 5.83273983001709 29.16725921630859 C 8.949179649353027 32.28369903564453 13.09269046783447 34 17.5 34 M 17.5 35 C 7.835020065307617 35 0 27.16497993469238 0 17.5 C 0 7.835020065307617 7.835020065307617 0 17.5 0 C 27.16497993469238 0 35 7.835020065307617 35 17.5 C 35 27.16497993469238 27.16497993469238 35 17.5 35 Z"/></g><g class="b" transform="translate(250 570)"><circle class="c" cx="8.5" cy="8.5" r="8.5"/><circle class="e" cx="8.5" cy="8.5" r="8"/></g></g></svg>