<svg xmlns="http://www.w3.org/2000/svg" viewBox="0 0 86 86"><g transform="translate(-45 -860)"><circle class="a" cx="43" cy="43" r="43" transform="translate(45 860)"/><g transform="translate(69.634 882.701)"><path class="b" d="M33.9,26.139c.683,2.528,2.323,9.292,2.323,9.292a5.176,5.176,0,0,1-.615,3.963,4.623,4.623,0,0,1-3.143,1.913l-1.5.273v2.733H44.9a3.222,3.222,0,0,0,2.46-3.143V28.941c0-6.286-2.938-8.541-8.4-8.541H33.7a12.326,12.326,0,0,0-4.1.615A7.731,7.731,0,0,1,33.9,26.139Z" transform="translate(-9.381 -6.494)"/><path class="b" d="M36.618,12.335A6.218,6.218,0,1,0,30.4,6.118,6.24,6.24,0,0,0,36.618,12.335Z" transform="translate(-9.635)"/><path class="b" d="M2.318,40.154,5.46,40.7v4.373H19.6V40.7l3.143-.547c1.845-.342,2.6-1.708,2.186-3.553l-2.255-9.155C21.653,24.03,19.125,22.8,15.094,22.8H9.97c-4.031,0-6.627,1.3-7.652,4.783L.063,36.6C-.279,38.446.473,39.813,2.318,40.154Zm8.4-6.969a4.774,4.774,0,0,1,3.348-.2,3.14,3.14,0,0,1,2.118-2.938,3.2,3.2,0,0,1,2.186,6.013,3.339,3.339,0,0,1-2.8-.273,3.108,3.108,0,0,1-1.64,3.006,7.789,7.789,0,0,1-1.3.683,2.842,2.842,0,0,0-2.255-3.553L5.119,34.893A50.85,50.85,0,0,0,10.721,33.185Z" transform="translate(0 -7.254)"/><circle class="b" cx="6.286" cy="6.286" r="6.286" transform="translate(4.389 2.944) rotate(-13.286)"/></g></g></svg>