<svg xmlns="http://www.w3.org/2000/svg" viewBox="0 0 40 40"><defs><style>.a{fill:#fff;}.b{fill:#f850ff;}</style></defs><g transform="translate(-168 -816)"><circle class="a" cx="20" cy="20" r="20" transform="translate(168 816)"/><path class="b" d="M24.314,10.845A6.081,6.081,0,0,0,21.54,7.077c-.1-.062-.172-.105-.153-.253a6.079,6.079,0,0,0-.105-1.994A6.138,6.138,0,0,0,10.5,2.356a.332.332,0,0,1-.253.091,12.507,12.507,0,0,0-1.521-.077,5.328,5.328,0,0,0-4.9,5.323.264.264,0,0,1-.21.3A5.278,5.278,0,0,0,.2,11.615c-.081.273-.129.55-.2.827v1.243c.062.268.115.54.191.8a5.34,5.34,0,0,0,5.16,3.931h5.371V10.764h-3l4.519-4.519,4.519,4.519H13.783v7.661h4.691a6.124,6.124,0,0,0,5.916-5.017c.024-.143.062-.287.091-.435V11.634C24.428,11.366,24.38,11.1,24.314,10.845Z" transform="translate(175.378 825.995)"/></g></svg>