<svg xmlns="http://www.w3.org/2000/svg" viewBox="81 679 86 86"><g transform="translate(36)"><circle class="a" cx="43" cy="43" r="43" transform="translate(45 679)"/><g transform="translate(71.049 705)"><path class="b" d="M18.878.552a2.125,2.125,0,0,0-2.857,0L.645,13.806a2.132,2.132,0,0,0-.144,3,2.3,2.3,0,0,0,3.007.149L17.449,5,31.391,16.957a2.126,2.126,0,1,0,2.86-3.148Z" transform="translate(0 0)"/><path class="b" d="M194.637,263.271l-10.868-9.319a1.226,1.226,0,0,0-.474-.244,1.018,1.018,0,0,0-.644.072,3.407,3.407,0,0,0-.506.365L171.5,263.273a2.181,2.181,0,0,0-1,1.736v11.07a1.056,1.056,0,0,0,1.052,1.052h5.8a1.054,1.054,0,0,0,1.052-1.052V266.47a1.055,1.055,0,0,1,1.055-1.052h7.195a1.059,1.059,0,0,1,1.055,1.052v9.607a1.054,1.054,0,0,0,1.049,1.052h5.623a1.052,1.052,0,0,0,1.049-1.052v-11.07A2.618,2.618,0,0,0,194.637,263.271Z" transform="translate(-165.647 -246.392)"/></g></g></svg>