<svg xmlns="http://www.w3.org/2000/svg" viewBox="-2813.587 1527.224 49.175 39.375"><path class="a" d="M12.322,34.469v2.789c-.062,1.426-.682,2.107-2.107,2.107H4.7a1.847,1.847,0,0,1-2.107-2.107c0-4.835-.062-9.608,0-14.443a22.01,22.01,0,0,1,.5-3.161,16.21,16.21,0,0,1-1.736,0C.3,19.592-.075,19.034.235,18.043a12.982,12.982,0,0,1,.5-1.426,2.453,2.453,0,0,1,2.727-1.86c1.24.124,1.736-.372,2.107-1.488C6.248,11.1,7.3,8.993,7.859,6.761,8.851,2.856,11.7,1.121,15.3.749A99.706,99.706,0,0,1,28.19.191a39.3,39.3,0,0,1,8,1.054,6.243,6.243,0,0,1,5.021,4.587c.868,2.727,1.984,5.393,2.975,8.12.248.744.62.992,1.3.93,2.789-.31,3.285,1.612,3.781,3.657.186.744-.31,1.178-1.054,1.24a17.377,17.377,0,0,1-1.8,0c.868,5.827.248,11.529.434,17.232.062,1.984-.558,2.541-2.541,2.541H39.348c-1.612,0-2.293-.682-2.293-2.293v-2.6C28.686,34.469,20.566,34.469,12.322,34.469ZM40.711,15.5c-.992-2.975-1.984-5.641-2.789-8.368a3.493,3.493,0,0,0-2.975-2.665c-.434-.062-.806-.186-1.24-.248a62.391,62.391,0,0,0-14.009-.5,47,47,0,0,0-5.827.806,3.208,3.208,0,0,0-2.046,1.3c-1.24,3.1-2.231,6.26-3.409,9.608A77.677,77.677,0,0,0,40.711,15.5ZM38.6,27.092v.124c1.054-.062,2.107-.062,3.1-.186,2.169-.31,2.6-.806,2.541-2.975,0-1.984-.744-2.727-2.6-2.169a48.659,48.659,0,0,0-6.446,2.665,1.873,1.873,0,0,0-.682,1.612c.062.434.806.868,1.364.93C36.744,27.154,37.674,27.092,38.6,27.092Zm-28.2.124v-.124h2.541c.806,0,1.612-.124,1.8-1.054.186-.992-.434-1.488-1.178-1.86-1.674-.744-3.285-1.488-4.959-2.107-2.851-.992-3.657-.372-3.657,2.6,0,1.364.372,1.922,1.674,2.169S9.161,27.092,10.4,27.216Z" transform="translate(-2813.717 1527.048)"/></svg>