<svg xmlns="http://www.w3.org/2000/svg" viewBox="0 0 136.221 135.681"><defs><style>.a{fill:#00b8e5;}.b{fill:#fff;}.c{fill:#00cdff;}</style></defs><g transform="translate(-0.002)"><path class="a" d="M16.9,142.328V121.887a6.224,6.224,0,0,1,5.914-6.487H45.3a5.952,5.952,0,0,1,5.467,4.009l1.757,4.651a5.763,5.763,0,0,0,5.3,3.886H139a6.224,6.224,0,0,1,5.914,6.487v7.895Z" transform="translate(-12.184 -80.087)"/><path class="b" d="M170.319,0H87a3.268,3.268,0,0,0-3.1,3.4v78.4h89.543V3.4A3.272,3.272,0,0,0,170.319,0Z" transform="translate(-60.495 0)"/><path class="c" d="M6.389,193.4H129.825c3.877,0,6.89,3.917,6.332,8.293l-7.253,58.6c-.7,5.508-4.826,9.608-9.735,9.608H16.432c-4.937,0-9.122-4.192-9.735-9.761L.057,201.6C-.445,197.225,2.54,193.4,6.389,193.4Z" transform="translate(0 -134.219)"/></g></svg>