<svg xmlns="http://www.w3.org/2000/svg" viewBox="0 0 86 86"><g transform="translate(-235 -240)"><circle class="a" cx="43" cy="43" r="43" transform="translate(235 240)"/><g transform="translate(247.663 264.928)"><path class="b" d="M73.326,28.014A102.545,102.545,0,0,0,55.1,15.816c-2.384-1.215-4.253-.795-5.982,1.309a8.292,8.292,0,0,1-4.861,3.225.281.281,0,0,0-.187.047,1.515,1.515,0,0,1-1.5-2.056c0-.047.047-.093.093-.14.888-1.5,2.056-2.851,2.851-4.393,1.449-2.711,3.832-3.412,6.637-3.739a39.83,39.83,0,0,1,12.9.888A24.269,24.269,0,0,0,68.746,11c.467.047,1.122.234,1.309.608,2.337,3.973,4.58,7.992,6.823,12.058a1.33,1.33,0,0,1-.093,1.262C75.71,26,74.495,26.985,73.326,28.014Z" transform="translate(-22.604 -5.257)"/><path class="b" d="M14.876,2.706C11.464,8.735,8.146,14.624,4.734,20.7c-1.589-.981-2.991-1.776-4.3-2.664a.642.642,0,0,1-.28-.981C3.285,12.194,8.473,2.519,9.781.276a.555.555,0,0,1,.795-.187Z"/><path class="b" d="M102.6,2.949c1.262-.795,2.477-1.542,3.692-2.29a1.376,1.376,0,0,1,1.916.467h0c2.9,5.188,5.8,10.375,8.74,15.516.561.981.467,1.542-.561,2.056-1.215.608-2.384,1.355-3.739,2.2C109.283,14.914,106.012,9.025,102.6,2.949Z" transform="translate(-54.635 -0.243)"/><path class="b" d="M51.98,75a2.1,2.1,0,0,1-1.963-3.038c.561-.935,1.215-1.823,1.869-2.711a1.451,1.451,0,0,1,2.2-.28c.795.561,1.5,1.355.981,2.337a25.08,25.08,0,0,1-2.43,3.412A1.813,1.813,0,0,1,51.98,75Z" transform="translate(-26.496 -36.542)"/><path class="b" d="M21.133,55.235c-1.636,0-2.664-1.542-1.916-2.711a23.331,23.331,0,0,1,1.869-2.384,1.5,1.5,0,0,1,2.15-.234c.795.514,1.449,1.215.935,2.056A20.986,20.986,0,0,1,21.741,55C21.6,55.141,21.227,55.188,21.133,55.235Z" transform="translate(-10.09 -26.403)"/><path class="b" d="M32.024,58.263a1.778,1.778,0,0,1-1.916-.093,2.276,2.276,0,0,1-.748-.748,2.182,2.182,0,0,1,0-1.869c1.122-1.682,2.43-3.318,3.645-4.954a1.618,1.618,0,0,1,2.43-.421,1.907,1.907,0,0,1,.841,2.57c-1.262,1.823-2.664,3.552-4.019,5.328C32.258,58.123,32.164,58.217,32.024,58.263Z" transform="translate(-15.513 -26.534)"/><path class="b" d="M44.934,60.235a2.109,2.109,0,0,1,.28,2.15.645.645,0,0,1-.14.187c-.935,1.309-1.869,2.617-2.851,3.926a1.7,1.7,0,0,1-2.524.467,1.906,1.906,0,0,1-.888-2.617,37.187,37.187,0,0,1,3.645-4.814c.28-.327,1.309-.28,1.729-.047A5.639,5.639,0,0,1,44.934,60.235Z" transform="translate(-20.524 -31.59)"/><path class="b" d="M58.574,30.961A96.976,96.976,0,0,0,40.721,19.277a3.307,3.307,0,0,0-1.4-.421h0c-.234,0-.795,0-1.729,1.122a10.846,10.846,0,0,1-6.216,4.066,1.294,1.294,0,0,1-.421.047h-.327a3.7,3.7,0,0,1-3.178-1.776,3.792,3.792,0,0,1-.28-3.6,1.4,1.4,0,0,1,.187-.374c.421-.748.935-1.449,1.4-2.15a22.124,22.124,0,0,0,1.355-2.056c-.187-.047-.374-.14-.561-.187-1.542-.467-3.085-.981-4.72-1.449-2.384,4.253-4.861,8.646-7.338,13.086a1.661,1.661,0,0,0-.093.467.7.7,0,0,0,.14.467c.608.841,1.355,1.636,2.01,2.43.14-.093.327-.14.467-.234.047,0,.093-.047.14-.047.093-.047.234-.093.327-.14.047,0,.093-.047.14-.047.14-.047.234-.093.374-.14h.047a1.1,1.1,0,0,1,.374-.093h.093c.093,0,.187-.047.28-.047h.467a.8.8,0,0,1,.327.047.172.172,0,0,1,.14.047.664.664,0,0,1,.28.093c.047,0,.093.047.14.047l.28.14a.163.163,0,0,1,.093.047c.14.093.234.14.374.234a.046.046,0,0,1,.047.047c.093.093.234.187.327.28.047.047.093.093.093.14a1.239,1.239,0,0,1,.234.28l.14.14a1.42,1.42,0,0,1,.234.327c.047.047.093.093.093.14v.047c.14-.14.234-.327.374-.467a3.542,3.542,0,0,1,2.9-1.589h0a4.1,4.1,0,0,1,2.1.654,4.218,4.218,0,0,1,1.916,2.711A3.025,3.025,0,0,1,32.4,32.69a2.932,2.932,0,0,1,1.4.467,6.273,6.273,0,0,1,1.262,1.168,4.252,4.252,0,0,1,.888,2.524,3.69,3.69,0,0,1,1.869.7c2.9,2.01,1.963,4.206,1.589,4.861l-.7,1.122a1.66,1.66,0,0,1,.421.187c.093.047.14.047.234.093.14.047.28.093.467.14.093.047.187.047.28.093a3.22,3.22,0,0,1,.374.14c.093.047.187.047.28.093.14.047.234.047.374.093.093,0,.187.047.28.047.093.047.234.047.327.093.093,0,.187.047.28.047s.234.047.327.047.187.047.28.047.234.047.327.047h1.449a2.024,2.024,0,0,0,.234-.047c.047,0,.14-.047.187-.047.093,0,.14-.047.234-.047.047,0,.14-.047.187-.047.093-.047.14-.047.234-.093.047,0,.093-.047.14-.047.093-.047.14-.093.234-.093.047-.047.093-.047.14-.093.093-.047.14-.093.234-.14.047-.047.093-.047.093-.093l.28-.28h0c.374-.421.234-.608-.234-.841-1.355-.654-2.711-1.309-4.019-2.01a6.544,6.544,0,0,1-.748-.467c-.374-.374.28-1.028.28-1.028l.047-.047.047-.047a.046.046,0,0,0,.047-.047c.047,0,.047-.047.093-.047h.187a1.383,1.383,0,0,1,.467.093,2.859,2.859,0,0,0,.561.234c1.309.608,2.617,1.262,3.973,1.823a4.8,4.8,0,0,0,1.168.327,5.709,5.709,0,0,0,1.215.14h.374c.047,0,.14-.047.187-.047s.093-.047.14-.047.093-.047.14-.093c.047,0,.093-.047.14-.047.047-.047.093-.047.14-.093s.093-.047.093-.093c.047-.047.093-.093.093-.14L51.1,41.1c.047-.047.047-.093.093-.187a.163.163,0,0,1,.047-.093c.047-.047.514-.748-.841-1.682-1.4-.935-7.431-3.786-6.637-4.954.047-.047.14-.234.187-.28l.047-.047.093-.093a.046.046,0,0,0,.047-.047c.047,0,.047-.047.093-.047H44.6a.163.163,0,0,1,.093.047h.047c.047,0,.093.047.14.093h.047c.047.047.093.047.093.093a.046.046,0,0,1,.047.047c.047.047,1.542.935,2.056,1.215,1.449.841,2.944,1.729,4.44,2.477a1.4,1.4,0,0,1,.374.187c.047,0,.047.047.093.047.14.047.234.093.374.14h.047c.14.047.28.047.421.093h.093c.14,0,.234.047.374.047h.374c.093,0,.187-.047.28-.047h0c.093,0,.14-.047.234-.093a2.837,2.837,0,0,0,.467-.327,4.214,4.214,0,0,0,.421-.467,1.306,1.306,0,0,0-.467-2.01c-.561-.327-1.168-.7-1.729-1.028-1.729-1.028-3.458-2.056-5.141-3.178-1.215-.841-.467-1.636-.467-1.636a.163.163,0,0,1,.093-.047.046.046,0,0,0,.047-.047h.28a2.348,2.348,0,0,1,.608.234c2.01,1.168,4.019,2.337,5.982,3.552.654.374,1.309.795,2.01,1.168a1.4,1.4,0,0,0,.374.187c.047,0,.093.047.14.047.093.047.187.047.28.093a.172.172,0,0,1,.14.047c.093,0,.187.047.28.047h.327a.8.8,0,0,0,.327-.047.353.353,0,0,0,.187-.047c.093-.047.187-.047.28-.093.047,0,.093-.047.14-.047l.28-.14c.047-.047.093-.047.14-.093a1.092,1.092,0,0,0,.327-.327,1.579,1.579,0,0,0,.28-.561C60.163,32.129,58.574,30.961,58.574,30.961Z" transform="translate(-9.254 -6.662)"/></g></g></svg>