<svg xmlns="http://www.w3.org/2000/svg" viewBox="0 0 86 86"><g transform="translate(-235 -595)"><circle class="a" cx="43" cy="43" r="43" transform="translate(235 595)"/><path class="b" d="M38.3,21.562c.05-1.451,0-2.9,0-4.2-.05-3.4-.45-3.8-3.952-3.852H24.792V3.6c-.05-3-.6-3.552-3.7-3.6h-2.4c-.75,0-1.451,0-2.051.05-2.651.1-3.152.65-3.2,3.3V13.608H6.481c-1.451,0-2.6,0-3.7.05-2.151.05-2.752.7-2.8,2.9-.05,1.2,0,2.4,0,3.6v1.1c0,3.4.4,3.8,3.9,3.8h9.605V35.87c0,1.8.75,2.551,2.551,2.651.7,0,1.451.05,2.351.05h2.351c2,0,3-.2,3.4-.65.45-.45.65-1.5.65-3.5V25.114H34.947C37.749,24.964,38.249,24.414,38.3,21.562Z" transform="translate(259.206 618.264)"/></g></svg>