<svg xmlns="http://www.w3.org/2000/svg" viewBox="-1093 548 55 55"><path class="a" d="M27.5,0A27.5,27.5,0,1,0,55,27.5,27.508,27.508,0,0,0,27.5,0ZM41.184,28.419a2.345,2.345,0,0,1-.512.775l-9.561,9.561a2.342,2.342,0,0,1-1.694.7,2.4,2.4,0,0,1-1.694-.7h0a2.278,2.278,0,0,1-.512-.775,2.407,2.407,0,0,1,.512-2.613h0l5.516-5.516H16.114a2.543,2.543,0,0,1-1.747-.683,2.287,2.287,0,0,1,0-3.336,2.543,2.543,0,0,1,1.747-.683H33.226L27.71,19.633a2.41,2.41,0,0,1,0-3.388h0a2.277,2.277,0,0,1,.775-.512,2.407,2.407,0,0,1,2.613.512l9.561,9.561a2.277,2.277,0,0,1,.512.775,2.472,2.472,0,0,1,.013,1.839Z" transform="translate(-1093 548)"/></svg>