<svg xmlns="http://www.w3.org/2000/svg" viewBox="0 0 86 86"><g transform="translate(-46 -1039)"><circle class="a" cx="43" cy="43" r="43" transform="translate(46 1039)"/><path class="b" d="M.676,35.283c.364,0,.546-.182.727-.546L1.949,33.1a.664.664,0,0,0-.364-.909.664.664,0,0,0-.909.364c-.182.727-.364,1.273-.546,1.819-.182.364,0,.727.546.909Zm6.911,2.182-1.637.546a1,1,0,0,0-.546.909c0,.364.364.546.727.546h.182c.546-.182,1.091-.364,1.819-.546a.664.664,0,0,0,.364-.909C8.315,37.465,7.951,37.283,7.587,37.465Zm-4.91.909a6.055,6.055,0,0,1-1.091-.546L1.4,37.647a.633.633,0,0,0-.909-.182.633.633,0,0,0-.182.909l.182.182a2.906,2.906,0,0,0,1.819.909H2.5c.364,0,.546-.182.727-.546A.581.581,0,0,0,2.677,38.374ZM24.865,25.825l-.727.727a.515.515,0,0,0,0,.909.668.668,0,0,0,.546.182c.182,0,.364,0,.364-.182l.909-.727a.515.515,0,0,0,0-.909A1.144,1.144,0,0,0,24.865,25.825ZM12.5,35.1c-.546.364-1.091.546-1.637.909a.664.664,0,0,0-.364.909c.182.182.364.364.546.364h.364c.546-.364,1.091-.546,1.637-.909.364-.182.364-.546.182-.909A.493.493,0,0,0,12.5,35.1Zm8.73-6.184c-.546.364-.909.727-1.455,1.091a.633.633,0,0,0-.182.909.668.668,0,0,0,.546.182c.182,0,.364,0,.364-.182.546-.364.909-.727,1.455-1.091a.633.633,0,0,0,.182-.909A.812.812,0,0,0,21.228,28.917Zm-4.183,3.274c-.546.364-.909.727-1.455,1.091-.364.182-.364.546-.182.909a.391.391,0,0,0,.364.364c.182,0,.182,0,.364-.182a10.088,10.088,0,0,0,1.455-1.091c.546-.182.546-.546.364-.909A.633.633,0,0,0,17.045,32.191ZM47.053,11.276a2.511,2.511,0,0,1-.546.727l-1.273,1.273a20.063,20.063,0,0,1,2.728,10.367A21.036,21.036,0,0,1,27.047,44.558a20.453,20.453,0,0,1-14-5.456h0L10.5,40.375a22.216,22.216,0,0,0,16.368,6.911A23.6,23.6,0,0,0,50.508,23.643,23.855,23.855,0,0,0,47.053,11.276ZM26.865,2.728a20.889,20.889,0,0,1,11.64,3.456L39.6,5.092a2.8,2.8,0,0,1,1.091-.727A24.449,24.449,0,0,0,26.865,0,23.812,23.812,0,0,0,15.007,3.167,23.5,23.5,0,0,0,3.222,23.643a23.2,23.2,0,0,0,3.092,11.64L8.86,34.191A20.063,20.063,0,0,1,6.132,23.825,20.8,20.8,0,0,1,26.865,2.728ZM25.774,9.639c-.182,0-.364,0-.364.182l-2,2c-.182.182-.182.182-.182.364a.391.391,0,0,0,.364.364l8.912,2.91-1.455,1.455-.909,2-5.092.727a.391.391,0,0,0-.364.364.668.668,0,0,0,.182.546l3.274,3.092,3.092,3.092a.668.668,0,0,0,.546.182.391.391,0,0,0,.364-.364l.909-5.092,2-.909,1.273-1.273,2.91,8.912c0,.182.182.182.364.364h.182c.182,0,.182,0,.364-.182l2-2c.182-.182.182-.182.182-.364l-1.637-10.73,4.547-4.547c.909-.909,1.819-3.456.909-4.365s-3.456-.182-4.365.909l-4.547,4.547Z" transform="translate(62.113 1058.859)"/></g></svg>