<svg xmlns="http://www.w3.org/2000/svg" viewBox="0 0 86 86"><g transform="translate(-49 -684.5)"><circle class="a" cx="43" cy="43" r="43" transform="translate(49 684.5)"/><g transform="translate(91.753 727.603)"><g transform="translate(-22.07 -21.538)"><path class="b" d="M43.773,26.159A23.083,23.083,0,0,1,33.523,40.886a8.079,8.079,0,0,1-4.665,1.361,9.208,9.208,0,0,1-7.792-6.01,14.619,14.619,0,0,1-.836-4.893c0-.079,0-.157,0-.235a2.1,2.1,0,0,0-1.67-2.352,6.8,6.8,0,0,1-4.193-4.375,17.97,17.97,0,0,1-.779-7.476c.021-.347.156-.462.508-.447.7.029,1.411-.011,2.115.017.383.015.5-.1.5-.492-.021-1.509-.01-3.017-.008-4.526a1.17,1.17,0,0,1,1.086-1.141,1.24,1.24,0,0,1,1.165,1.16c.005,1.487.015,2.974-.007,4.46a.488.488,0,0,0,.49.5c1.782-.006,3.564.012,5.346.043.366.006.468-.114.462-.468-.016-1.45-.007-2.9-.006-4.349,0-.851.315-1.22,1.046-1.23.769-.01,1.132.377,1.135,1.2,0,1.411.025,2.819.011,4.232,0,.384.1.508.494.5.763-.023,1.527.012,2.291.006.244,0,.386.026.422.324a17.419,17.419,0,0,1-.3,7.164,6.826,6.826,0,0,1-5.6,4.98c-.882.181-.932.568-.886,1.479a12.168,12.168,0,0,0,1.029,5.265,6.873,6.873,0,0,0,.345.613,3.922,3.922,0,0,0,4.741,1.868,13.259,13.259,0,0,0,5.381-3.828,17.432,17.432,0,0,0,5.017-10.372,17.2,17.2,0,0,0-3.92-13.084A17.735,17.735,0,0,0,20.469,4.045,18.177,18.177,0,0,0,4.381,18.8,17.833,17.833,0,0,0,9.348,34.971c1.641,1.7,5.038,3.307,7.226,4.225a2.016,2.016,0,0,1,1.013,2.776h0a2.016,2.016,0,0,1-2.537.963C10.422,41.106-2.093,34.712.3,18.47A22.613,22.613,0,0,1,25.507.228c9.437,1.386,16.88,9.191,18.409,18.682A22.861,22.861,0,0,1,43.773,26.159Z" transform="translate(0 0)"/></g></g></g></svg>