<svg xmlns="http://www.w3.org/2000/svg" viewBox="-386 240 86 86"><g transform="translate(-435)"><circle class="a" cx="43" cy="43" r="43" transform="translate(49 240)"/><g transform="translate(65.754 257.559)"><path class="b" d="M38.863,42.052c.628-4.452-1.941-6.964-4.566-7.42C30.757,34,28.189,36.744,27.561,39.6c-.285,1.427-.514,2.4-.628,3.139a31.879,31.879,0,0,1-1.027,4C23.68,54.038,15.4,59.118,15.346,59.176a2.075,2.075,0,1,0,2.169,3.539c.4-.228,9.7-5.993,12.386-14.783a42.522,42.522,0,0,0,1.142-4.4c.114-.685.342-1.655.628-3.082.285-1.37,1.2-1.884,1.941-1.769.913.171,1.37,1.2,1.142,2.74a46.909,46.909,0,0,1-2.4,8.448c-3.938,8.847-7.991,11.872-9.989,13.3l-.228.171a2.1,2.1,0,0,0-.457,2.911,2.006,2.006,0,0,0,1.655.856,2.055,2.055,0,0,0,1.256-.4l.228-.171c2.283-1.655,6.964-5.137,11.244-14.9A46.123,46.123,0,0,0,38.863,42.052Z" transform="translate(-6.139 -14.791)"/><path class="b" d="M20.332,38.77c1.769-7.82,2.683-10.217,5.822-11.986a6.763,6.763,0,0,1,5.879-.342,2.113,2.113,0,0,0,1.2-4.053,10.828,10.828,0,0,0-9.133.742c-4.737,2.74-5.993,6.393-7.877,14.726-1.37,6.107-7.021,9.932-8.676,10.959a2.063,2.063,0,0,0-.685,2.854A2.161,2.161,0,0,0,8.631,52.7a2.56,2.56,0,0,0,1.084-.285C11.77,51.156,18.562,46.475,20.332,38.77Z" transform="translate(-2.791 -9.282)"/><path class="b" d="M56.045,30.319A2.108,2.108,0,0,0,52.792,33c1.142,1.427,2.511,4.11.685,11.244A45.787,45.787,0,0,1,45.543,60.97l-.342.514a2.1,2.1,0,0,0,.457,2.911,1.9,1.9,0,0,0,1.2.4,2.108,2.108,0,0,0,1.712-.856l.342-.514a49.122,49.122,0,0,0,8.676-18.208C59.3,38.424,58.785,33.687,56.045,30.319Z" transform="translate(-19.212 -12.647)"/><path class="b" d="M6.353,42.561a18.25,18.25,0,0,0,7.135-12.5c.742-5.365,3.025-9.247,6.792-11.473a2.085,2.085,0,1,0-2.112-3.6c-3.368,2-7.706,6.107-8.847,14.5a14.546,14.546,0,0,1-5.537,9.76,2.085,2.085,0,0,0-.4,2.911,2.11,2.11,0,0,0,1.655.8A2.221,2.221,0,0,0,6.353,42.561Z" transform="translate(-1.255 -6.281)"/><path class="b" d="M51.592,12.286c-5.308-2.169-8.79-1.712-10.959-1.142A2.1,2.1,0,0,0,41.717,15.2c1.6-.4,4.167-.742,8.333.97A13.356,13.356,0,0,1,55.3,20.219a2.023,2.023,0,0,0,1.6.742,2.113,2.113,0,0,0,1.6-3.482A18.7,18.7,0,0,0,51.592,12.286Z" transform="translate(-16.756 -4.545)"/><path class="b" d="M69.4,31.633a2.081,2.081,0,0,0-.913,2.8c.342.685,1.427,3.425.4,9.3-1.427,8.105-3.6,11.929-4.738,13.927a6.224,6.224,0,0,1-.342.628,2.092,2.092,0,0,0,.856,2.854,2.326,2.326,0,0,0,1.027.285,2.112,2.112,0,0,0,1.826-1.084,5.018,5.018,0,0,0,.342-.571c1.2-2.112,3.71-6.507,5.251-15.3,1.2-6.678,0-10.331-.8-11.872A2.217,2.217,0,0,0,69.4,31.633Z" transform="translate(-27.255 -13.447)"/><path class="b" d="M20.758,8.254a2.4,2.4,0,0,0,1.2-.342A22.614,22.614,0,0,1,31.946,4.43c7.591-.856,12.671,1.2,13.3,1.655A2.084,2.084,0,1,0,47.7,2.718C46.1,1.576,39.823-.65,31.489.32A26.369,26.369,0,0,0,19.617,4.544,2.04,2.04,0,0,0,19.1,7.455,1.954,1.954,0,0,0,20.758,8.254Z" transform="translate(-8.012 0)"/><path class="b" d="M3.957,34.323a16.256,16.256,0,0,0,2-5.822A35.277,35.277,0,0,1,7.1,23.821,20.14,20.14,0,0,1,9.664,18.8a2.1,2.1,0,1,0-3.2-2.74,21.612,21.612,0,0,0-3.311,6.393A35.976,35.976,0,0,0,1.845,27.7,13,13,0,0,1,.3,32.269a2.092,2.092,0,0,0,.856,2.854,2.017,2.017,0,0,0,.97.228A1.949,1.949,0,0,0,3.957,34.323Z" transform="translate(0 -6.548)"/><path class="b" d="M80.9,18.547a32.062,32.062,0,0,0-4.623-6.336,2.1,2.1,0,0,0-3.025,2.911,28.734,28.734,0,0,1,3.938,5.365c2.968,5.594,3.253,12.728.913,21.233-.114.4-.171.685-.228.856a2.046,2.046,0,0,0,1.6,2.454,1.257,1.257,0,0,0,.457.057,2.129,2.129,0,0,0,2.055-1.655c0-.114.114-.342.171-.628C84.784,33.274,84.385,25.111,80.9,18.547Z" transform="translate(-31.17 -4.928)"/></g></g></svg>