<svg xmlns="http://www.w3.org/2000/svg" viewBox="0 0 86 86"><g transform="translate(-235 -240)"><circle class="a" cx="43" cy="43" r="43" transform="translate(235 240)"/><path class="b" d="M36.109,43.266l-6.4-11.71a2.794,2.794,0,0,0,1.975-2.681V8.277C31.688,3.715,30.654,0,23.458,0H12.595C5.07,0,4.412,3.715,4.412,8.277v20.6A2.823,2.823,0,0,0,6.575,31.6L.227,43.266a2,2,0,0,0,.8,2.728,1.543,1.543,0,0,0,.894.188,1.957,1.957,0,0,0,1.693-.988l.611-.988h27.84l.611.988a1.842,1.842,0,0,0,1.693.988,3.036,3.036,0,0,0,.894-.188A1.969,1.969,0,0,0,36.109,43.266Zm-9.453-9.076H9.726L11.09,31.65H25.245ZM7.516,25.348a2.4,2.4,0,1,1,2.4,2.4A2.409,2.409,0,0,1,7.516,25.348ZM25.575,27.7a2.4,2.4,0,1,1,2.4-2.4A2.409,2.409,0,0,1,25.575,27.7ZM6.81,8.888A1.164,1.164,0,0,1,7.986,7.713H28.208a1.164,1.164,0,0,1,1.176,1.176V19a1.164,1.164,0,0,1-1.176,1.176H8.033A1.164,1.164,0,0,1,6.857,19V8.888ZM5.87,41.149,8.08,37.2H28.255l2.21,3.95ZM19.414,4.185a1.411,1.411,0,1,1-2.822,0A1.386,1.386,0,0,1,18,2.775,1.415,1.415,0,0,1,19.414,4.185Z" transform="translate(260.498 260.009)"/></g></svg>