<svg xmlns="http://www.w3.org/2000/svg" viewBox="-200 600 86 86"><g transform="translate(-435)"><circle class="a" cx="43" cy="43" r="43" transform="translate(235 600)"/><g transform="translate(252.618 622.041)"><path class="b" d="M10.958,20.588H7.6a17.088,17.088,0,0,1,31.04-9.464l2.186-3.566A21,21,0,0,0,3.693,20.588H.628c-.5,0-.708.354-.464.794l5.165,8.951c.256.44.672.44.916,0l5.165-8.951C11.679,20.954,11.471,20.588,10.958,20.588Z" transform="translate(0)"/><path class="b" d="M114.911,111.18l-5.165-8.951c-.256-.44-.672-.44-.916,0l-5.165,8.951c-.256.44-.049.794.464.794h3.15a17.08,17.08,0,0,1-30.393,9.146L74.7,124.576a21,21,0,0,0,36.511-12.6H114.5C114.947,111.974,115.155,111.62,114.911,111.18Z" transform="translate(-65.524 -89.457)"/></g></g></svg>