<svg xmlns="http://www.w3.org/2000/svg" viewBox="0 0 86 86"><g transform="translate(-49 -423)"><circle class="a" cx="43" cy="43" r="43" transform="translate(49 423)"/><path class="b" d="M21.472,0H9.2C.767,0,0,4.218,0,9.317V32.476a3.123,3.123,0,0,0,2.952,3.144v1.8A2.389,2.389,0,0,0,5.33,39.8H6.518A2.389,2.389,0,0,0,8.9,37.423v-1.8H21.664v1.8A2.389,2.389,0,0,0,24.041,39.8H25.23a2.389,2.389,0,0,0,2.377-2.377v-1.8h.038a3.151,3.151,0,0,0,3.106-3.144V9.317C30.674,4.218,29.524,0,21.472,0ZM6.633,3.566H23.428a1.414,1.414,0,0,1,1.5,1.227,1.388,1.388,0,0,1-1.5,1.227H6.633a1.414,1.414,0,0,1-1.5-1.227A1.414,1.414,0,0,1,6.633,3.566ZM5.828,31.173a2.3,2.3,0,1,1,2.3-2.3A2.307,2.307,0,0,1,5.828,31.173Zm18.4,0a2.3,2.3,0,1,1,2.3-2.3A2.307,2.307,0,0,1,24.233,31.173ZM28.144,20.59A1.359,1.359,0,0,1,26.8,21.932H24.808V18.865a2.487,2.487,0,0,0-2.492-2.492h-.268a2.943,2.943,0,0,0,1.265-2.416,2.991,2.991,0,1,0-5.981,0A2.943,2.943,0,0,0,18.6,16.372h-.46a2.487,2.487,0,0,0-2.492,2.492v3.067H4.1A1.359,1.359,0,0,1,2.761,20.59V9.2A1.359,1.359,0,0,1,4.1,7.86H26.8A1.359,1.359,0,0,1,28.144,9.2Z" transform="translate(76.724 446)"/></g></svg>