<svg xmlns="http://www.w3.org/2000/svg" viewBox="-200 240 86 86"><g transform="translate(-435)"><circle class="a" cx="43" cy="43" r="43" transform="translate(235 240)"/><g transform="translate(257.276 259)"><path class="b" d="M48,124.468a6.539,6.539,0,0,0,6.6-6.468H41.4A6.539,6.539,0,0,0,48,124.468Z" transform="translate(-27.327 -77.828)"/><path class="b" d="M40.934,35.644l-4.8-5.311a4.342,4.342,0,0,1-1.123-2.894V19.916a8.9,8.9,0,0,1-2.349.34A8.313,8.313,0,0,1,26.3,6.6a14.886,14.886,0,0,0-3.03-.919V2.621A2.572,2.572,0,0,0,20.678,0a2.622,2.622,0,0,0-2.621,2.621v3.1A14.154,14.154,0,0,0,6.311,19.541v7.932a4.408,4.408,0,0,1-1.123,2.894L.422,35.644A1.711,1.711,0,0,0,1.749,38.5H39.607A1.708,1.708,0,0,0,40.934,35.644Z" transform="translate(0)"/><path class="b" d="M84.294,17.2a6.152,6.152,0,0,0-4.358,1.838A5.965,5.965,0,0,0,78.2,23.294a6.088,6.088,0,0,0,6.094,6.094,5.6,5.6,0,0,0,2.145-.409A6.083,6.083,0,0,0,84.294,17.2Zm.987,8.034v1.7h-1.43V21.9h-1.77V20.877h.2a2.026,2.026,0,0,0,.851-.136,1.205,1.205,0,0,0,.545-.306.955.955,0,0,0,.272-.409,1.048,1.048,0,0,0,.1-.443h1.226Z" transform="translate(-51.598 -11.344)"/><path class="b" d="M89.7,29.021h1.089L89.87,28h-.136v1.021Z" transform="translate(-59.183 -18.468)"/></g></g></svg>