<svg xmlns="http://www.w3.org/2000/svg" viewBox="0 0 86 86"><g transform="translate(-235 -859)"><circle class="a" cx="43" cy="43" r="43" transform="translate(235 859)"/><g transform="translate(261.5 883.658)"><path class="b" d="M18.553,22.03a.417.417,0,0,0,.419-.419V17.155a.417.417,0,0,0-.419-.419H15.432a.417.417,0,0,0-.419.419v4.456a.417.417,0,0,0,.419.419Zm1.226-.062a1.04,1.04,0,0,1-1.04,1.04H15.215a1.04,1.04,0,0,1-1.04-1.04v-1.63A46.71,46.71,0,0,1,0,17.435V30.476a1.007,1.007,0,0,0,1.009,1.009H32.944a1.007,1.007,0,0,0,1.009-1.009V17.435a46.253,46.253,0,0,1-14.19,2.9v1.63ZM32.96,5.247H23.334c.031-.031.031-.062,0-.124l-.388-.652a.362.362,0,0,0-.264-.155h-.248a1.342,1.342,0,0,0,.14-.714L22.449,1.77A1.821,1.821,0,0,0,20.586,0h-7.2a1.79,1.79,0,0,0-1.847,1.785l-.124,1.832a1.508,1.508,0,0,0,.14.714H11.3a.32.32,0,0,0-.264.155l-.388.652a.094.094,0,0,0,0,.124H1.025A1.007,1.007,0,0,0,.016,6.272v9.734a46.253,46.253,0,0,0,14.19,2.9v-2.1a1.04,1.04,0,0,1,1.04-1.04H18.77a1.04,1.04,0,0,1,1.04,1.04v2.1A47.185,47.185,0,0,0,34,16.006V6.257A1.055,1.055,0,0,0,32.96,5.247ZM21.021,4.161c0,.016-.016.078-.031.171h-.217a.32.32,0,0,0-.264.155l-.388.652a.094.094,0,0,0,0,.124H13.848c.031-.031.031-.062,0-.124l-.388-.652a.362.362,0,0,0-.264-.155h-.217a1.384,1.384,0,0,1-.031-.171,2.719,2.719,0,0,1,.047-1.118,1.533,1.533,0,0,1,.5-.994,3.249,3.249,0,0,1,1.894-.279H18.6a3.147,3.147,0,0,1,1.894.279,1.57,1.57,0,0,1,.5.994A3.01,3.01,0,0,1,21.021,4.161Z"/></g></g></svg>