<svg xmlns="http://www.w3.org/2000/svg" viewBox="0 0 40 40"><defs><style>.a{fill:#fff;}.b{fill:#f850ff;}</style></defs><g transform="translate(-168 -816)"><circle class="a" cx="20" cy="20" r="20" transform="translate(168 816)"/><path class="b" d="M18.926,2.8h-3.8L14.42,1.33A2.667,2.667,0,0,0,12.292,0h-3.3A2.738,2.738,0,0,0,6.864,1.33L6.155,2.8h-3.8A2.373,2.373,0,0,0,0,5.179V15.13a2.373,2.373,0,0,0,2.359,2.377H18.908a2.362,2.362,0,0,0,2.359-2.377V5.179A2.347,2.347,0,0,0,18.926,2.8ZM2.838,6.634a.94.94,0,1,1,.94-.94A.946.946,0,0,1,2.838,6.634Zm7.8,8.532A4.966,4.966,0,1,1,15.609,10.2,4.97,4.97,0,0,1,10.642,15.165Zm0-8.3a3.317,3.317,0,1,0,3.317,3.317A3.323,3.323,0,0,0,10.642,6.864Z" transform="translate(177.565 826.435)"/></g></svg>