<svg xmlns="http://www.w3.org/2000/svg" viewBox="0 0 86 86"><g transform="translate(-49 -240)"><circle class="a" cx="43" cy="43" r="43" transform="translate(49 240)"/><path class="b" d="M-2564.338,49.325a24.509,24.509,0,0,1-9.6-1.938,24.581,24.581,0,0,1-7.839-5.285,24.581,24.581,0,0,1-5.286-7.839,24.512,24.512,0,0,1-1.938-9.6,24.512,24.512,0,0,1,1.938-9.6,24.582,24.582,0,0,1,5.286-7.839,24.581,24.581,0,0,1,7.839-5.285,24.509,24.509,0,0,1,9.6-1.938,24.509,24.509,0,0,1,9.6,1.938,24.581,24.581,0,0,1,7.839,5.285,24.582,24.582,0,0,1,5.286,7.839,24.512,24.512,0,0,1,1.938,9.6,24.512,24.512,0,0,1-1.938,9.6A24.581,24.581,0,0,1-2546.9,42.1a24.581,24.581,0,0,1-7.839,5.285A24.509,24.509,0,0,1-2564.338,49.325ZM-2570.5,27.4a2.058,2.058,0,0,0-2.057,2.055,2.058,2.058,0,0,0,2.057,2.056h17.811a2.058,2.058,0,0,0,2.055-2.056,2.057,2.057,0,0,0-2.055-2.055Zm-6.835-.4a2.058,2.058,0,0,0-2.056,2.056,2.057,2.057,0,0,0,2.056,2.055,2.057,2.057,0,0,0,2.055-2.055A2.057,2.057,0,0,0-2577.337,27.007Zm0-9.122a2.058,2.058,0,0,0-2.056,2.056A2.058,2.058,0,0,0-2577.337,22a2.057,2.057,0,0,0,2.055-2.056A2.057,2.057,0,0,0-2577.337,17.885Zm6.835-.073a2.058,2.058,0,0,0-2.057,2.056,2.058,2.058,0,0,0,2.057,2.055h17.811a2.057,2.057,0,0,0,2.055-2.055,2.058,2.058,0,0,0-2.055-2.056Z" transform="translate(2656.5 258.608)"/></g></svg>