<svg xmlns="http://www.w3.org/2000/svg" viewBox="276 497 86 86"><g transform="translate(36)"><circle class="a" cx="43" cy="43" r="43" transform="translate(240 497)"/><path class="b" d="M0,3.425C0,1.507,4.316,0,9.591,0s9.591,1.507,9.591,3.425S14.866,6.851,9.591,6.851,0,5.343,0,3.425Zm9.591,7.536c5.275,0,9.591-1.507,9.591-3.425V5.48c0,1.918-4.316,3.425-9.591,3.425S0,7.4,0,5.48V7.536C0,9.454,4.316,10.961,9.591,10.961Zm0,6.165C4.316,17.126,0,15.619,0,13.7v2.055c0,1.918,4.316,3.425,9.591,3.425Zm0-2.055h0a3.248,3.248,0,0,1,1.233-2.055H9.591C4.316,13.016,0,11.509,0,9.591v2.055C0,13.564,4.316,15.071,9.591,15.071Zm21.922,2.055v2.055c5.275,0,9.591-1.507,9.591-3.425V13.7C41.1,15.619,36.787,17.126,31.512,17.126Zm0-10.276c5.275,0,9.591-1.507,9.591-3.425S36.787,0,31.512,0s-9.591,1.507-9.591,3.425S26.237,6.851,31.512,6.851Zm0,6.165H30.279a3.183,3.183,0,0,1,1.165,2.055h0c5.275,0,9.591-1.507,9.591-3.425V9.591C41.1,11.509,36.787,13.016,31.512,13.016Zm0-4.11c-5.275,0-9.591-1.507-9.591-3.425V7.536c0,1.918,4.316,3.425,9.591,3.425S41.1,9.454,41.1,7.536V5.48C41.1,7.4,36.787,8.906,31.512,8.906Zm-1.37,6.851c0,1.918-4.316,3.425-9.591,3.425s-9.591-1.507-9.591-3.425,4.316-3.425,9.591-3.425S30.142,13.838,30.142,15.756Zm-9.591,5.48c-5.275,0-9.591-1.507-9.591-3.425v2.055c0,1.918,4.316,3.425,9.591,3.425s9.591-1.507,9.591-3.425V17.811C30.142,19.729,25.826,21.237,20.552,21.237Zm0,4.11c-5.275,0-9.591-1.507-9.591-3.425v2.055c0,1.918,4.316,3.425,9.591,3.425s9.591-1.507,9.591-3.425V21.922C30.142,23.84,25.826,25.347,20.552,25.347Z" transform="translate(262 528.154)"/></g></svg>