<svg xmlns="http://www.w3.org/2000/svg" viewBox="0 0 86 86"><g transform="translate(-235 -240)"><circle class="a" cx="43" cy="43" r="43" transform="translate(235 240)"/><path class="b" d="M33.6,8.894C33.439,4.007,30.73.766,26.161.023a10.091,10.091,0,0,0-6.056,1.222A7.388,7.388,0,0,1,13.2,1.191a14.554,14.554,0,0,0-2.125-.8A8.119,8.119,0,0,0,.4,6.876,15.1,15.1,0,0,0,1.991,17.712c1.541,2.5,1.753,5.1,1.859,7.862.106,2.072.159,3.984.372,5.843.372,3.453.85,6.906,2.444,9.987a11.38,11.38,0,0,0,2.444,3.081,1.877,1.877,0,0,0,3.028-.744,5.106,5.106,0,0,0,.425-1.541c.478-2.975.85-5.95,1.434-8.871a26.969,26.969,0,0,1,1.647-4.94,1.855,1.855,0,0,1,.637-.8.738.738,0,0,1,1.009,0,3.719,3.719,0,0,1,.744.85,9.745,9.745,0,0,1,.956,2.444c.744,3.719,1.381,7.437,2.019,11.209.212,1.169.372,2.284,1.647,2.762a2.347,2.347,0,0,0,2.762-1.116,18.4,18.4,0,0,0,2.391-4.356c1.7-4.993,1.966-10.2,1.859-15.405a8.437,8.437,0,0,1,1.381-5.047A16.558,16.558,0,0,0,33.6,8.894Zm-4.515,4.622A1.052,1.052,0,1,1,27.6,15l-2.975-2.975L21.646,15a1.052,1.052,0,0,1-1.487-1.487l2.975-2.975L20.159,7.566a1.052,1.052,0,0,1,1.487-1.487l2.975,2.975L27.6,6.079a1.052,1.052,0,1,1,1.487,1.487l-2.975,2.975Z" transform="translate(260.756 260.943)"/></g></svg>