<svg xmlns="http://www.w3.org/2000/svg" viewBox="-200 423 86 86"><g transform="translate(-435)"><circle class="a" cx="43" cy="43" r="43" transform="translate(235 423)"/><path class="b" d="M44.33,5.467a33.931,33.931,0,0,1-9.877-1.031A39.973,39.973,0,0,1,23.87.094a1.479,1.479,0,0,0-1.628,0A39.973,39.973,0,0,1,11.659,4.436,35.983,35.983,0,0,1,1.782,5.467,1.612,1.612,0,0,0,.1,7.095,76.215,76.215,0,0,0,3.79,29.508,40.276,40.276,0,0,0,22.242,51.65a1.52,1.52,0,0,0,1.52,0A40.058,40.058,0,0,0,42.213,29.508,78.767,78.767,0,0,0,45.958,7.095,1.567,1.567,0,0,0,44.33,5.467ZM23,10.677a5.156,5.156,0,1,1-5.156,5.156A5.153,5.153,0,0,1,23,10.677Zm9.551,23.607c-2.5,2.117-5.861,2.768-9.551,2.768s-7.055-.706-9.551-2.768a2.863,2.863,0,0,1-.814-3.31,11.207,11.207,0,0,1,20.731,0A2.823,2.823,0,0,1,32.553,34.284Z" transform="translate(254.479 442.146)"/></g></svg>