<svg xmlns="http://www.w3.org/2000/svg" viewBox="0 0 86 86"><g transform="translate(-235 -423)"><circle class="a" cx="43" cy="43" r="43" transform="translate(235 423)"/><path class="b" d="M39.706,22.271a5.323,5.323,0,0,0-1.585-3.78l-1.869-1.829-1.829-9.1a5.265,5.265,0,0,0-5.161-4.267H27.717V1.382A1.37,1.37,0,0,0,26.335,0H13.452A1.37,1.37,0,0,0,12.07,1.382v1.91H10.526a5.309,5.309,0,0,0-5.2,4.267l-1.788,9.1-1.91,1.829A5.462,5.462,0,0,0,0,22.271V30.44a1.5,1.5,0,0,0,1.5,1.5H3.17v.732a3.174,3.174,0,0,0,3.17,3.17h.081a3.235,3.235,0,0,0,3.251-3.251v-.65h20.4v.65a3.261,3.261,0,0,0,3.251,3.251h0a3.261,3.261,0,0,0,3.251-3.251v-.65h1.951a1.112,1.112,0,0,0,1.1-1.057ZM7.437,8.9a3.871,3.871,0,0,1,3.78-3.089H28.53A3.871,3.871,0,0,1,32.31,8.9l1.341,6.624H6.1ZM26.376,22.434v2.073a1.355,1.355,0,0,1-1.382,1.3H14.834a1.329,1.329,0,0,1-1.382-1.3V22.434a1.355,1.355,0,0,1,1.382-1.3h10.2A1.374,1.374,0,0,1,26.376,22.434Zm-21.7-1.463a2.752,2.752,0,1,1-2.52,2.52A2.71,2.71,0,0,1,4.674,20.971Zm30.481,5.487a2.752,2.752,0,1,1,2.52-2.52A2.814,2.814,0,0,1,35.154,26.457Z" transform="translate(257.997 447.177)"/></g></svg>