<svg xmlns="http://www.w3.org/2000/svg" viewBox="0 0 86 86"><g transform="translate(-235 -423)"><circle class="a" cx="43" cy="43" r="43" transform="translate(235 423)"/><g transform="translate(262.782 438.417)"><path class="b" d="M26.863,51.513c3.56-2.043,4.027-3.327,3.093-7.3-.642-2.743-1.4-5.428-2.1-8.171a6.2,6.2,0,0,0-5.895-4.961c-4.669-.233-9.338-.175-14.007-.058a5.079,5.079,0,0,0-4.961,3.619c-1.109,3.677-1.868,7.412-2.8,11.147a4.244,4.244,0,0,0,1.984,4.786,10.381,10.381,0,0,0,2.218,1.459c1.459.584,1.4,1.4.934,2.685-.817,2.51-1.634,4.961-2.393,7.529a1.7,1.7,0,0,0,1.634,2.218H26.63a1.7,1.7,0,0,0,1.634-2.218c-.759-2.626-1.517-5.194-2.393-7.762C25.346,53.147,25.4,52.33,26.863,51.513ZM23.07,43.283a14.027,14.027,0,0,1-5.136,5.311c-.7.467-1.459.934-2.218,1.342a.827.827,0,0,1-.642.058,18.521,18.521,0,0,1-6.829-5.545c-.934-1.342-1.634-2.8-1.109-4.494a4.172,4.172,0,0,1,3.443-3.152,4.161,4.161,0,0,1,4.377,1.926c.117.117.175.292.35.525a4.566,4.566,0,0,1,2.685-2.335,4.376,4.376,0,0,1,5.078,6.362Z" transform="translate(0 -12.881)"/><path class="b" d="M28.484,14.294a.462.462,0,0,0,.35-.759,3.981,3.981,0,0,1-.875-1.868c-.467-2.159.934-2.568,0-6.478C26.616-.413,20.722,0,20.722,0V0S14.36-.413,12.959,5.19c-.934,3.91.467,4.319,0,6.478a3.516,3.516,0,0,1-.934,1.868.462.462,0,0,0,.35.759c.992,0,2.393,0,3.794-.058A6.759,6.759,0,0,0,20.6,15.928a7.105,7.105,0,0,0,4.611-1.693C26.383,14.294,27.608,14.294,28.484,14.294Z" transform="translate(-4.947 0)"/></g></g></svg>