<svg xmlns="http://www.w3.org/2000/svg" viewBox="0 0 86 86"><g transform="translate(-235 -423)"><circle class="a" cx="43" cy="43" r="43" transform="translate(235 423)"/><g transform="translate(254.849 437.433)"><path class="b" d="M45.822,58.983c-.031-1.819-.627-2.383-2.477-2.383H41.464c-.847-1.756-1.63-3.418-2.446-5.017-.847-1.63.188-2.759.972-3.951a.656.656,0,0,1,.125-.188,1.346,1.346,0,0,0-.878-2.038.435.435,0,0,0-.282,0c-1.442.188-2.885.627-4.672,1.035A19.213,19.213,0,0,0,20.99,42.773c-8.434.6-16.335,8.4-16.868,16.837A31.433,31.433,0,0,1,3.777,63.5a1.608,1.608,0,0,1-1.1,1c-.282.063-.721-.47-1.1-.752a.66.66,0,0,1,.69-.251c.251.063.5.157.721.219l.345-.408c-.439-.376-.815-1-1.317-1.1A1.571,1.571,0,0,0,.046,63.529a3.156,3.156,0,0,0,2.916,3.7c.564.031,1.129,0,1.787,0A20.32,20.32,0,0,0,9.765,75.35a1.539,1.539,0,0,1,.282,1.129c-.125,1.348-.314,2.7-.47,4.045a3.349,3.349,0,0,0-.094.784c.125,1.286,1.035,1.662,2.1,1.6,1.411-.094,3.292,1.5,4.107-.972a21.024,21.024,0,0,0,.439-2.477,19.634,19.634,0,0,0,13.514-.031c.784,5.048.941,3.825,5.3,3.449a1.5,1.5,0,0,0,1.348-1.944,6.422,6.422,0,0,0-.157-.753c-.5-2.54-.721-4.828,1.63-6.9,1.38-1.223,2.1-3.324,2.885-5.111.408-.941.815-1.254,1.819-1.191a3.527,3.527,0,0,0,2.1-.282A3.105,3.105,0,0,0,45.7,64.721,50.542,50.542,0,0,0,45.822,58.983ZM28.076,47.539a1.028,1.028,0,0,1-1.223.627,17.953,17.953,0,0,0-7.9,0,1.038,1.038,0,0,1-1.191-.6h0a.91.91,0,0,1,.69-1.223,20.544,20.544,0,0,1,8.9,0A.948.948,0,0,1,28.076,47.539ZM34.033,60.08A2.477,2.477,0,1,1,36.51,57.6,2.482,2.482,0,0,1,34.033,60.08Z" transform="translate(0 -29.297)"/><circle class="b" cx="2.832" cy="2.832" r="2.832" transform="translate(23.317 10.099)"/><circle class="b" cx="2.8" cy="2.8" r="2.8" transform="translate(18.946 2)"/></g></g></svg>