<svg xmlns="http://www.w3.org/2000/svg" viewBox="0 0 86 86"><g transform="translate(-49 -600)"><circle class="a" cx="43" cy="43" r="43" transform="translate(49 600)"/><g transform="translate(65.956 622.227)"><path class="b" d="M57.886,21.429l-.836.836c-.78.724-1.5,1.5-2.285,2.229.223,1.393.5,2.842.724,4.235v.111c0,.39-.279.557-.613.39-.669-.334-1.338-.724-2.006-1a6.585,6.585,0,0,1-1.616-.892c-.167-.111-.279-.167-.446-.056-1.226.613-2.4,1.282-3.622,1.895-.056,0-.056.056-.111.056-.334.167-.613-.056-.613-.446a11.529,11.529,0,0,1,.223-1.226c.167-1,.334-2.062.557-3.065-.669-.669-1.338-1.282-2.006-1.951-.39-.334-.724-.724-1.115-1.059l-.111-.111c-.223-.334-.111-.613.279-.669a15.022,15.022,0,0,1,1.56-.223c.947-.111,1.895-.279,2.786-.39.613-1.226,2.006-4.291,2.675-4.291s1.728,4.235,2.118,4.291c1.393.167,2.731.39,4.124.557h.056C58.054,20.816,58.165,21.094,57.886,21.429Z" transform="translate(-19.431 -6.988)"/><path class="b" d="M47.651,14.5a16.2,16.2,0,0,0-32.212,3.455A15.655,15.655,0,0,0,17,23.3L2.12,31.773a5.034,5.034,0,0,0,5.852,8.192L21.012,28.541a16.155,16.155,0,0,0,10.533,3.9c.557,0,1.17-.056,1.728-.111A16.211,16.211,0,0,0,47.651,14.5ZM32.883,29.042A12.89,12.89,0,0,1,30.152,3.407c.446,0,.892-.056,1.338-.056a12.886,12.886,0,0,1,1.393,25.691Z" transform="translate(0 0)"/></g></g></svg>