<svg xmlns="http://www.w3.org/2000/svg" viewBox="0 0 86 86"><g transform="translate(-49 -423)"><circle class="a" cx="43" cy="43" r="43" transform="translate(49 423)"/><g transform="translate(64.074 453.291)"><path class="b" d="M.43,29.505h0a1.107,1.107,0,0,1-.091-1.559L11.615,15.229a1.1,1.1,0,0,1,1.572-.078l5.521,5.066L30.529,6.148A1.091,1.091,0,0,1,32.14,6.07L42.922,16.463a.169.169,0,0,0,.247-.013l6.768-7.833A1.121,1.121,0,0,1,51.5,8.5h0a1.121,1.121,0,0,1,.117,1.559L43.949,18.9a1.108,1.108,0,0,1-1.6.078L31.465,8.486,19.656,22.529a1.108,1.108,0,0,1-1.6.1l-5.391-4.962a.189.189,0,0,0-.273.013L1.976,29.414A1.092,1.092,0,0,1,.43,29.505Z" transform="translate(0 -5.045)"/><path class="b" d="M364.286,2.921,369.5,7.91a.5.5,0,0,0,.831-.247l1.78-7.08a.512.512,0,0,0-.637-.611l-7,2.092A.525.525,0,0,0,364.286,2.921Z" transform="translate(-316.778 0)"/><rect class="b" width="0.52" height="5.963" transform="translate(5.652 18.835)"/><rect class="b" width="0.52" height="11.549" transform="translate(10.368 13.249)"/><rect class="b" width="0.52" height="11.25" transform="translate(15.083 13.561)"/><rect class="b" width="0.52" height="9.652" transform="translate(19.721 15.159)"/><rect class="b" width="0.52" height="14.589" transform="translate(24.398 10.222)"/><rect class="b" width="0.52" height="14.589" transform="translate(38.467 10.222)"/><rect class="b" width="0.52" height="17.005" transform="translate(47.82 7.793)"/><rect class="b" width="0.52" height="20.175" transform="translate(29.074 4.636)"/><rect class="b" width="0.52" height="20.175" transform="translate(33.751 4.636)"/><rect class="b" width="0.52" height="12.64" transform="translate(43.078 12.171)"/></g></g></svg>