<svg xmlns="http://www.w3.org/2000/svg" viewBox="0 0 86 86"><g transform="translate(-235 -240)"><circle class="a" cx="43" cy="43" r="43" transform="translate(235 240)"/><g transform="translate(278.375 282.668)"><g transform="translate(-16.384 -21.462)"><path class="b" d="M34.325,30.813h4.593a.747.747,0,0,0,0-1.493L36.146,29.3l.229-.25a1.642,1.642,0,0,0,.4-.7,2.818,2.818,0,0,0,.129-.816,2.538,2.538,0,0,0-.041-.44h.576a.693.693,0,1,0,0-1.385H36.311q-.194-.325-.356-.641a1.646,1.646,0,0,1-.163-.758,1.072,1.072,0,0,1,.35-.874,1.474,1.474,0,0,1,.971-.292A3.511,3.511,0,0,1,38.2,23.3l.009,0a.778.778,0,0,0,.978-.471l0-.007a.786.786,0,0,0-.532-1.024q-.152-.041-.315-.081a6.421,6.421,0,0,0-1.437-.149,4.14,4.14,0,0,0-1.165.155,2.57,2.57,0,0,0-.912.468,2.116,2.116,0,0,0-.6.783,2.671,2.671,0,0,0-.213,1.107,3.1,3.1,0,0,0,.122.932,3.991,3.991,0,0,0,.292.7h-.188a.693.693,0,0,0,0,1.385h.874a2.557,2.557,0,0,1,.078.647,1.73,1.73,0,0,1-.1.6,1.441,1.441,0,0,1-.3.5,1.474,1.474,0,0,1-.505.343.862.862,0,0,1-.1.035.843.843,0,0,0-.627.808v.016A.773.773,0,0,0,34.325,30.813Z" transform="translate(-19.909 -12.797)"/><path class="b" d="M32.766,5.511A5.511,5.511,0,0,0,27.255,0H24.4V.036H4.025A4.025,4.025,0,0,0,0,4.061V38.9a4.025,4.025,0,0,0,4.025,4.025H28.707A4.025,4.025,0,0,0,32.732,38.9V8.371h.036ZM16.553,5.5A8.081,8.081,0,1,1,8.472,13.58,8.081,8.081,0,0,1,16.553,5.5ZM26.711,36.247a.849.849,0,0,1-.847.847H7.43a.849.849,0,0,1-.847-.847v-.163a.849.849,0,0,1,.847-.847H25.865a.849.849,0,0,1,.847.847Zm0-4.706a.849.849,0,0,1-.847.846H7.43a.849.849,0,0,1-.847-.847v-.163a.849.849,0,0,1,.847-.847H25.865a.849.849,0,0,1,.847.847Zm0-4.912a.849.849,0,0,1-.847.847H7.43a.849.849,0,0,1-.847-.847v-.163a.849.849,0,0,1,.847-.849H25.865a.849.849,0,0,1,.847.847Z"/></g></g></g></svg>