<svg xmlns="http://www.w3.org/2000/svg" xmlns:xlink="http://www.w3.org/1999/xlink" viewBox="0 0 440.296 383.11"><defs><style>.a,.e,.k{fill:#fff;}.b{fill:#1d2a3e;}.b,.c,.h{opacity:0.9;}.c,.d{fill:#efefef;}.e{opacity:0.05;}.f{opacity:0.069;}.g,.h{fill:#35c6f4;}.i{opacity:0.8;}.j{fill:#f850ff;}.l{fill:#55d8ff;}.m,.n{stroke:none;}.n{fill:#707070;}.o{filter:url(#i);}.p{filter:url(#g);}.q{filter:url(#e);}.r{filter:url(#c);}.s{filter:url(#a);}</style><filter id="a" x="96.271" y="0" width="246.802" height="383.11" filterUnits="userSpaceOnUse"><feOffset dy="30" input="SourceAlpha"/><feGaussianBlur stdDeviation="15" result="b"/><feFlood flood-color="#36005d" flood-opacity="0"/><feComposite operator="in" in2="b"/><feComposite in="SourceGraphic"/></filter><filter id="c" x="276.326" y="67.717" width="163.97" height="163.97" filterUnits="userSpaceOnUse"><feOffset dx="-10" dy="30" input="SourceAlpha"/><feGaussianBlur stdDeviation="20" result="d"/><feFlood flood-color="#36005d" flood-opacity="0.302"/><feComposite operator="in" in2="d"/><feComposite in="SourceGraphic"/></filter><filter id="e" x="0" y="157.993" width="125.498" height="125.498" filterUnits="userSpaceOnUse"><feOffset dx="-10" dy="20" input="SourceAlpha"/><feGaussianBlur stdDeviation="15" result="f"/><feFlood flood-color="#36005d" flood-opacity="0.302"/><feComposite operator="in" in2="f"/><feComposite in="SourceGraphic"/></filter><filter id="g" x="49.75" y="139.145" width="155.155" height="155.155" filterUnits="userSpaceOnUse"><feOffset dx="-10" dy="20" input="SourceAlpha"/><feGaussianBlur stdDeviation="15" result="h"/><feFlood flood-color="#36005d" flood-opacity="0.302"/><feComposite operator="in" in2="h"/><feComposite in="SourceGraphic"/></filter><filter id="i" x="206.09" y="61.293" width="178.887" height="178.887" filterUnits="userSpaceOnUse"><feOffset dx="-10" dy="30" input="SourceAlpha"/><feGaussianBlur stdDeviation="20" result="j"/><feFlood flood-color="#36005d" flood-opacity="0.302"/><feComposite operator="in" in2="j"/><feComposite in="SourceGraphic"/></filter></defs><g transform="translate(89.442 90.022)"><g class="s" transform="matrix(1, 0, 0, 1, -89.44, -90.02)"><path class="a" d="M560.856,293.61H432.746A14.36,14.36,0,0,1,418.4,279.264V14.846A14.36,14.36,0,0,1,432.746.5h128.11A14.36,14.36,0,0,1,575.2,14.846V279.264A14.36,14.36,0,0,1,560.856,293.61Z" transform="translate(-277.13 14.5)"/></g><path class="b" d="M567.62,291.358h-134.6a.724.724,0,0,1-.723-.743V76.243a.724.724,0,0,1,.723-.743h134.6a.724.724,0,0,1,.723.743V290.662A.714.714,0,0,1,567.62,291.358Z" transform="translate(-369.728 -116.401)"/><circle class="c" cx="11.803" cy="11.803" r="11.803" transform="translate(118.659 183.906)"/><rect class="d" width="27.039" height="2.331" rx="1.165" transform="translate(117.613 -59.465)"/><circle class="d" cx="1.865" cy="1.865" r="1.865" transform="translate(128.802 -66.924)"/><path class="e" d="M794.4,1661.113H935.052v227.459Z" transform="translate(-733.797 -1706.167)"/><g class="f" transform="translate(85.731 21.307)"><path class="g" d="M273.1,283.187a.13.13,0,0,1,.022-.087" transform="translate(-213.897 -221.854)"/><path class="g" d="M145.7,189.139h0l.022-1.038a.021.021,0,0,1-.022.022Z" transform="translate(-114.119 -147.406)"/><path class="h" d="M145.7,189.139h0l.022-1.038a.021.021,0,0,1-.022.022Z" transform="translate(-114.119 -147.406)"/><path class="g" d="M310.922,222.745v-7.507A.806.806,0,0,0,310.9,215v8A1.045,1.045,0,0,0,310.922,222.745Z" transform="translate(-243.501 -168.487)"/><path class="h" d="M310.922,222.745v-7.507A.806.806,0,0,0,310.9,215v8A1.045,1.045,0,0,0,310.922,222.745Z" transform="translate(-243.501 -168.487)"/><path class="g" d="M228.3,210.066h0l.022-20.466c0,.022,0,.022-.022.043Z" transform="translate(-178.81 -148.582)"/><path class="h" d="M228.3,210.066h0l.022-20.466c0,.022,0,.022-.022.043Z" transform="translate(-178.81 -148.582)"/><path class="g" d="M311,216.1v7.507C311.108,221.119,311.108,218.61,311,216.1Z" transform="translate(-243.58 -169.349)"/><path class="h" d="M311,216.1v7.507C311.108,221.119,311.108,218.61,311,216.1Z" transform="translate(-243.58 -169.349)"/><path class="g" d="M145.7,212.73h0l.022-19.73H145.7Z" transform="translate(-114.119 -151.246)"/><path class="h" d="M145.7,212.73h0l.022-19.73H145.7Z" transform="translate(-114.119 -151.246)"/><path class="g" d="M311,258.026h0l.022-7.226a.812.812,0,0,1-.022.238Z" transform="translate(-243.58 -196.542)"/><path class="h" d="M311,258.026h0l.022-7.226a.812.812,0,0,1-.022.238Z" transform="translate(-243.58 -196.542)"/><path class="g" d="M304.384,155.375a32.032,32.032,0,0,1,.564,6.555v3.678a.809.809,0,0,0,.022.238v-4.154a32.179,32.179,0,0,0-.564-6.555A11.559,11.559,0,0,0,303.3,152c.022.13.043.26.065.368A12.561,12.561,0,0,1,304.384,155.375Z" transform="translate(-237.549 -119.116)"/><path class="a" d="M90.72,42.078C89.072,18.692,68.931,0,45.45,0,21.666,0,1.416,19.081.115,42.77-1.4,68.19,19.173,90.387,44.691,90.8c22.353.368,42.191-16.225,45.617-38.314v-.151c.217-1.32.347-2.661.434-4,0-.151.022-.325.022-.476v-.022A42.5,42.5,0,0,0,90.72,42.078ZM29.71,29.357l1.019,5.019h.26a13.5,13.5,0,0,1,1.648-1.882,17.31,17.31,0,0,1,2.038-1.644,10.854,10.854,0,0,1,10.732-.281A8.213,8.213,0,0,1,48.4,34.7a11.661,11.661,0,0,1,3.729-3.894l.13-.065a9.246,9.246,0,0,1,4.011-1.3,15.688,15.688,0,0,1,4.271.151,14.11,14.11,0,0,1,1.583.389,6.255,6.255,0,0,1,3.035,2.163,8.566,8.566,0,0,1,.715,1.147,11.59,11.59,0,0,1,1.019,2.964,32.033,32.033,0,0,1,.564,6.555v3.678a.809.809,0,0,0,.022.238c.108,2.51.108,5.019,0,7.507v7.226h-.022v.216h-8.2v-17.7A15.284,15.284,0,0,0,58.48,38.4c-.629-1.493-2.211-1.882-3.686-1.861a4.84,4.84,0,0,0-3.317,1.19,1.306,1.306,0,0,0-.173.173,7.189,7.189,0,0,0-1.734,3.072V61.441h-.022v.216h-8.2V44.566a16.477,16.477,0,0,0-.824-6.166,2.682,2.682,0,0,0-1.084-1.255,5.33,5.33,0,0,0-5.789.606,7.667,7.667,0,0,0-2.016,2.964V61.484h-.022V61.7h-8.2V29.357Z" transform="translate(-0.036)"/><path class="h" d="M416.3,227.575c.217-1.363.368-2.769.455-4.175-.087,1.363-.239,2.683-.434,4C416.322,227.467,416.3,227.532,416.3,227.575Z" transform="translate(-326.05 -175.07)"/></g><g class="i" transform="translate(256.884 7.695)"><g class="r" transform="matrix(1, 0, 0, 1, -346.33, -97.72)"><path class="j" d="M21.985,0A21.985,21.985,0,1,1,0,21.985,21.985,21.985,0,0,1,21.985,0Z" transform="translate(346.33 97.72)"/></g><g transform="translate(13.124 8.447)"><g transform="translate(0 0)"><g transform="translate(0 0)"><path class="a" d="M1.81,8.754A10.824,10.824,0,0,1,2.7,4.711,7.544,7.544,0,0,1,7.516.181,6.42,6.42,0,0,1,14.5,2.9,10.449,10.449,0,0,1,16.416,8.43c.007.1.018.188.028.32.2.018.4.028.594.05a1.222,1.222,0,0,1,1.188,1.365V21.8c0,1.07-.448,1.54-1.5,1.54q-7.1.005-14.212,0c-.388,0-.775.011-1.163,0A1.273,1.273,0,0,1,0,21.884V10.393c0-1.141.377-1.55,1.483-1.611C1.575,8.779,1.664,8.768,1.81,8.754ZM4.4,8.743h9.212c-.132-2.123-.377-3.972-2.1-5.3a4.051,4.051,0,0,0-5.269.181C4.718,4.974,4.494,6.727,4.4,8.743Zm3.5,8.711c0,.256-.011.512,0,.768.032.633.388.924,1.109.921s1.081-.288,1.1-.921a12.174,12.174,0,0,0,0-1.248.922.922,0,0,1,.373-.846,2.361,2.361,0,0,0,.149-3.378,2.208,2.208,0,0,0-3.243,0,2.364,2.364,0,0,0,.146,3.378.875.875,0,0,1,.37.846A3.659,3.659,0,0,0,7.9,17.454Z" transform="translate(0 0.048)"/></g></g></g></g><g class="i" transform="translate(-38.183 89.556)"><g class="q" transform="matrix(1, 0, 0, 1, -51.26, -179.58)"><g class="k" transform="translate(55 182.99)"><path class="m" d="M 17.74895477294922 34.9979133605957 C 13.14159488677979 34.9979133605957 8.809994697570801 33.20371627807617 5.552104949951172 29.94581413269043 C 2.294204711914063 26.68791389465332 0.500004768371582 22.35631561279297 0.500004768371582 17.74895477294922 C 0.500004768371582 13.14159488677979 2.294204711914063 8.809994697570801 5.552104949951172 5.552104949951172 C 8.809994697570801 2.294204711914063 13.14159488677979 0.500004768371582 17.74895477294922 0.500004768371582 C 22.35631561279297 0.500004768371582 26.68791389465332 2.294204711914063 29.94581413269043 5.552104949951172 C 33.20371627807617 8.809994697570801 34.9979133605957 13.14159488677979 34.9979133605957 17.74895477294922 C 34.9979133605957 22.35631561279297 33.20371627807617 26.68791389465332 29.94581413269043 29.94581413269043 C 26.68791389465332 33.20371627807617 22.35631561279297 34.9979133605957 17.74895477294922 34.9979133605957 Z"/><path class="n" d="M 17.74895477294922 34.4979133605957 C 22.22276496887207 34.4979133605957 26.42879486083984 32.75571441650391 29.59225463867188 29.59225463867188 C 32.75571441650391 26.42879486083984 34.4979133605957 22.22276496887207 34.4979133605957 17.74895477294922 C 34.4979133605957 13.27514457702637 32.75571441650391 9.069114685058594 29.59225463867188 5.905654907226563 C 26.42879486083984 2.742194890975952 22.22276496887207 1.000004768371582 17.74895477294922 1.000004768371582 C 13.27514457702637 1.000004768371582 9.069114685058594 2.742194890975952 5.905654907226563 5.905654907226563 C 2.742194890975952 9.069114685058594 1.000004768371582 13.27514457702637 1.000004768371582 17.74895477294922 C 1.000004768371582 22.22276496887207 2.742194890975952 26.42879486083984 5.905654907226563 29.59225463867188 C 9.069114685058594 32.75571441650391 13.27514457702637 34.4979133605957 17.74895477294922 34.4979133605957 M 17.74895477294922 35.4979133605957 C 7.946474552154541 35.4979133605957 4.772949068865273e-06 27.55143547058105 4.772949068865273e-06 17.74895477294922 C 4.772949068865273e-06 7.946474552154541 7.946474552154541 4.772949068865273e-06 17.74895477294922 4.772949068865273e-06 C 27.55143547058105 4.772949068865273e-06 35.4979133605957 7.946474552154541 35.4979133605957 17.74895477294922 C 35.4979133605957 27.55143547058105 27.55143547058105 35.4979133605957 17.74895477294922 35.4979133605957 Z"/></g></g><g transform="translate(0 0)"><circle class="l" cx="4.916" cy="4.916" r="4.916" transform="translate(15.82 17.74) rotate(-13.286)"/><path class="l" d="M21.356,0A21.356,21.356,0,1,0,42.712,21.356,21.362,21.362,0,0,0,21.356,0ZM33.819,24.63l-3.366.377-1.234,2.132,1.367,3.1L28,32.228l-2.641-2.121-2.376.643-1.234,3.162L18.5,33.482l-.377-3.366-2.132-1.234-3.1,1.367L10.9,27.659l2.121-2.641-.643-2.376L9.22,21.407l.428-3.243,3.366-.377,1.234-2.132-1.367-3.111,2.59-1.989,2.641,2.121,2.386-.643,1.234-3.162,3.243.428.377,3.366L27.486,13.9l3.1-1.367,1.989,2.59-2.121,2.641.643,2.376,3.162,1.234Z" transform="translate(0 0)"/></g></g><g transform="translate(15.308 74.123)"><g class="p" transform="matrix(1, 0, 0, 1, -104.75, -164.14)"><path class="l" d="M32.578,0A32.578,32.578,0,1,1,0,32.578,32.578,32.578,0,0,1,32.578,0Z" transform="translate(104.75 164.14)"/></g><g transform="translate(16.678 11.975)"><g transform="translate(6.489 0)"><path class="a" d="M51.081,83.531l-.281.881H64.276L63.917,83.3l-1.263-3.9H52.422Z" transform="translate(-47.978 -68.287)"/><path class="a" d="M81.574,4.75,80.5,1.715a2.064,2.064,0,0,0-3.759.016L75.654,4.8,75.2,6.083h6.846Z" transform="translate(-69.219 -0.512)"/><path class="a" d="M26,162.621c-.028.1,19.186.1,19.158,0L43.622,156.7H27.535Z" transform="translate(-26 -135.21)"/></g><path class="a" d="M29.979,195.62H2.992A2.61,2.61,0,0,1,.5,192.91h0a2.61,2.61,0,0,1,2.492-2.71H29.979a2.61,2.61,0,0,1,2.492,2.71h0A2.61,2.61,0,0,1,29.979,195.62Z" transform="translate(-0.5 -157.73)"/></g></g><g transform="translate(181.542 -2.763)"><g class="o" transform="matrix(1, 0, 0, 1, -270.98, -87.26)"><g class="k" transform="translate(276.09 91.29)"><path class="m" d="M 29.44344329833984 58.38682174682617 C 25.5358829498291 58.38682174682617 21.74547386169434 57.62163162231445 18.17750358581543 56.11251449584961 C 14.7310037612915 54.65476226806641 11.63561344146729 52.56777191162109 8.977343559265137 49.90949249267578 C 6.319063186645508 47.25122451782227 4.232063293457031 44.15584182739258 2.77431321144104 40.70934295654297 C 1.265193343162537 37.14137268066406 0.5000032782554626 33.35097122192383 0.5000032782554626 29.44341278076172 C 0.5000032782554626 25.53585243225098 1.265193343162537 21.74545288085938 2.77431321144104 18.17748260498047 C 4.232063293457031 14.73098278045654 6.319063186645508 11.6356029510498 8.977343559265137 8.977333068847656 C 11.63561344146729 6.319052696228027 14.7310037612915 4.232062816619873 18.17750358581543 2.774312734603882 C 21.74547386169434 1.265192747116089 25.5358829498291 0.5000028014183044 29.44344329833984 0.5000028014183044 C 33.35100173950195 0.5000028014183044 37.14141464233398 1.265192747116089 40.70938491821289 2.774312734603882 C 44.15589141845703 4.232062816619873 47.25127410888672 6.319052696228027 49.90955352783203 8.977333068847656 C 52.56782150268555 11.6356029510498 54.65482330322266 14.73098278045654 56.11257171630859 18.17748260498047 C 57.6216926574707 21.74545288085938 58.38688278198242 25.53585243225098 58.38688278198242 29.44341278076172 C 58.38688278198242 33.35097122192383 57.6216926574707 37.14137268066406 56.11257171630859 40.70934295654297 C 54.65482330322266 44.15584182739258 52.56782150268555 47.25122451782227 49.90955352783203 49.90949249267578 C 47.25127410888672 52.56777191162109 44.15589141845703 54.65476226806641 40.70938491821289 56.11251449584961 C 37.14141464233398 57.62163162231445 33.35100173950195 58.38682174682617 29.44344329833984 58.38682174682617 Z"/><path class="n" d="M 29.44344329833984 57.88682174682617 C 33.28372192382813 57.88682174682617 37.00860214233398 57.13492202758789 40.51461410522461 55.65201187133789 C 43.90151214599609 54.2194709777832 46.94347381591797 52.16845321655273 49.55599212646484 49.55594253540039 C 52.16851425170898 46.94342422485352 54.21953201293945 43.90147399902344 55.65207290649414 40.51456451416016 C 57.13498306274414 37.00856399536133 57.88688278198242 33.28369140625 57.88688278198242 29.44341278076172 C 57.88688278198242 25.6031322479248 57.13498306274414 21.87826347351074 55.65207290649414 18.37226295471191 C 54.21953201293945 14.98535251617432 52.16851425170898 11.94340324401855 49.55599212646484 9.330883026123047 C 46.94347381591797 6.718372821807861 43.90151214599609 4.667352676391602 40.51461410522461 3.23481273651123 C 37.00860214233398 1.75190281867981 33.28372192382813 1.00000274181366 29.44344329833984 1.00000274181366 C 25.60316276550293 1.00000274181366 21.87828254699707 1.75190281867981 18.37228393554688 3.23481273651123 C 14.98537349700928 4.667352676391602 11.94341373443604 6.718372821807861 9.330893516540527 9.330883026123047 C 6.71837329864502 11.94340324401855 4.667363166809082 14.9853630065918 3.234823226928711 18.37226295471191 C 1.751903295516968 21.87826347351074 1.000003337860107 25.6031322479248 1.000003337860107 29.44341278076172 C 1.000003337860107 33.28369140625 1.751903295516968 37.00856399536133 3.234823226928711 40.51456451416016 C 4.667363166809082 43.90146255493164 6.71837329864502 46.94342422485352 9.330893516540527 49.55594253540039 C 11.94341373443604 52.16845321655273 14.98537349700928 54.2194709777832 18.37228393554688 55.65201187133789 C 21.87828254699707 57.13492202758789 25.60316276550293 57.88682174682617 29.44344329833984 57.88682174682617 M 29.44344329833984 58.88682174682617 C 13.18228340148926 58.88682174682617 3.298339834145736e-06 45.70456314086914 3.298339834145736e-06 29.44341278076172 C 3.298339834145736e-06 13.1822624206543 13.18228340148926 2.780761633403017e-06 29.44344329833984 2.780761633403017e-06 C 45.70461273193359 2.780761633403017e-06 58.88688278198242 13.1822624206543 58.88688278198242 29.44341278076172 C 58.88688278198242 45.70456314086914 45.70461273193359 58.88682174682617 29.44344329833984 58.88682174682617 Z"/></g></g><g transform="translate(0 0)"><path class="j" d="M32.674,0A32.674,32.674,0,1,0,65.348,32.674,32.684,32.684,0,0,0,32.674,0Zm0,49.261S15.9,40.8,15.9,29.194a8.834,8.834,0,0,1,16.774-3.87,8.834,8.834,0,0,1,16.774,3.87C49.448,40.8,32.674,49.261,32.674,49.261Z"/></g></g></g></svg>