<svg xmlns="http://www.w3.org/2000/svg" xmlns:xlink="http://www.w3.org/1999/xlink" viewBox="0 0 287.965 223.958"><defs><style>.a{fill:#fff;}.b{opacity:0.649;}.c{opacity:0.883;}.d{fill:none;}.e{opacity:0.25;fill:url(#a);}</style><linearGradient id="a" x2="0" y2="1" gradientUnits="objectBoundingBox"><stop offset="0" stop-color="#1d2a3e"/><stop offset="1" stop-opacity="0.627"/></linearGradient></defs><g transform="translate(-78 -693.011)"><g transform="translate(189.986 767.654)"><path class="a" d="M32.484,31.016a9.544,9.544,0,1,0-7.332-11.332A9.629,9.629,0,0,0,32.484,31.016Z" transform="translate(8.311 4.047)"/><path class="a" d="M88.123,64.392l-2.266-6.266c-8.666,1.466-16.665.667-21.6-1.2-6.533-2.533-12.532-14.132-12.8-14.665h0c-.533-.933-1.866-2.533-6.133-4a27.51,27.51,0,0,0-10.8-1.466c-2.133-1.333-10-7.2-11.065-15.465C22.8,15.465,26,8.4,30.263,4L24.93,0S14.4,11.065,13.465,23.464c-.533,7.332,4.8,15.6,11.332,21.6h0a.413.413,0,0,1,.267.133,3.534,3.534,0,0,0,.8.667A32.569,32.569,0,0,1,32.4,54.527c2.8,5.733,2.4,9.6,2.4,9.6-.267,10.132-6.533,16.8-12.932,22.131-7.466,6.266-17.6-1.733-17.6-1.733L0,90.256c27.463,20,44.261-12,44.261-12S45.328,85.59,39.2,94.922c-5.866,8.8-21.331,14.8-21.331,14.8l3.2,7.2c38.662-10.4,38.662-39.862,37.329-50.661C69.992,70.658,88.123,64.392,88.123,64.392Z" transform="translate(0 0)"/></g><g class="b" transform="translate(295.307 767.862)"><path class="a" d="M14.938,24.992A8.658,8.658,0,1,0,9.27,14.138,8.628,8.628,0,0,0,14.938,24.992Z" transform="translate(1.893 1.661)"/><path class="a" d="M42.342,56.2a106.542,106.542,0,0,0-3.256-19.9c2.533-6.512,4.342-12.3,1.688-20.14C36.432,3.256,23.408,0,23.408,0L20.513,5.065c4.945,2.412,8.563,4.824,10.733,9.527,2.653,5.909.965,9.527-.482,11.457-3.015,3.377-7.96,3.98-11.336,5.186A14.99,14.99,0,0,0,14.6,34.009,65.6,65.6,0,0,0,3.629,47.034C-1.8,55.355.373,65.244.373,65.244l5.668-3.618A25.176,25.176,0,0,1,12.674,49.2c1.688-1.688,4.342-4.221,6.512-6.271.241.844.482,1.809.724,2.774a38.053,38.053,0,0,1,1.206,7.718c0,7.115-3.5,16.4-5.065,17.849-1.93,1.809-9.166-7.839-9.166-7.839l-5.427,3.5a27.131,27.131,0,0,0,11.216,17C20.393,84.9,31.85,67.174,31.85,67.174c2.412,15.316-8.924,35.939-8.924,35.939h9.648s7.115-9.648,9.166-21.587A102.435,102.435,0,0,0,42.342,56.2Z" transform="translate(0.056 0)"/></g><g class="c" transform="translate(104.663 772.987)"><path class="a" d="M42.1,26.831A9.512,9.512,0,1,0,29.433,22.3,9.483,9.483,0,0,0,42.1,26.831Z" transform="translate(9.496 2.899)"/><path class="a" d="M35.2,56.926a22.509,22.509,0,0,1,1.866-8.132,42.335,42.335,0,0,1,3.466-6.533,86.945,86.945,0,0,0,16.665,0A65.438,65.438,0,0,0,74.658,37.2l-2-5.866A71.981,71.981,0,0,1,58.126,34a28.673,28.673,0,0,1-12-1.2c-.4-.133-.667-.267-1.067-.4h-.133C38.662,30,34.129,27.863,32,26.93c-3.2-1.733-10.4-5.6-15.731-11.065C8.132,7.6,6,0,6,0L0,1.6C1.2,5.866,5.466,17.331,12.265,25.33a60.814,60.814,0,0,0,9.6,8.532A20.9,20.9,0,0,0,20,37.729c-4.8,11.6-3.333,24.13-3.333,24.13s.133,8.932,7.2,10.8c5.733,1.6,13.732,4.666,13.332,7.2-.667,4.8-13.865,10.265-13.865,10.265l4.133,6.266s16.531-8.132,20.931-13.465c2.666-3.2-.667-9.332-5.6-14.932,5.6-2,13.332-4,14.8-1.466,2.533,4.133-4.666,19.2-4.666,19.2h7.466s7.732-16.8,7.732-23.73C68.258,54.527,45.061,53.86,35.2,56.926Z"/></g><g transform="translate(273.976 693.011)"><path class="d" d="M27.447,128.629c-.123-.061-.286-.143-.511-.245-.1-.061-.225-.1-.348-.164a3.555,3.555,0,0,1-.388-.2c-.286-.143-.593-.307-.9-.47-.164-.1-.327-.184-.491-.286s-.327-.2-.511-.307a3.027,3.027,0,0,0-.266-.164l-.245-.184a2.991,2.991,0,0,0-.266-.184,2.987,2.987,0,0,0-.266-.184c-.164-.143-.348-.266-.511-.388-.082-.061-.164-.143-.245-.2a2.165,2.165,0,0,0-.245-.2c-.082-.082-.164-.143-.245-.225l-.123-.123-.123-.1c-.082-.082-.164-.143-.245-.225a2.452,2.452,0,0,1-.225-.245c-.307-.307-.593-.654-.879-.981-.143-.164-.266-.348-.409-.511l-.1-.123-.1-.123a2.988,2.988,0,0,1-.184-.266c-.061-.082-.123-.184-.184-.266-.02-.041-.061-.082-.082-.123s-.061-.082-.082-.123a1.159,1.159,0,0,1-.164-.266c-.061-.082-.1-.184-.164-.266-.1-.164-.2-.348-.307-.511s-.184-.327-.286-.491c-.184-.327-.327-.634-.47-.92a3.812,3.812,0,0,0-.2-.409c-.061-.123-.1-.245-.164-.348a.329.329,0,0,0-.082-.143c-.02-.041-.041-.1-.061-.143a1.994,1.994,0,0,1-.1-.225c-.02-.061-.061-.1-.061-.143l-.02-.041H17v.716c0,.123.02.245.02.388.02.143.02.286.041.45.041.327.1.675.184,1.063.041.184.1.388.164.593.041.1.061.2.1.307s.061.2.1.327a9.086,9.086,0,0,0,.572,1.308,11.214,11.214,0,0,0,.8,1.308,8.186,8.186,0,0,0,1.022,1.206,11.388,11.388,0,0,0,1.186,1.043,12.6,12.6,0,0,0,1.288.838,2.441,2.441,0,0,0,.327.164c.061.02.1.061.164.082a.612.612,0,0,1,.164.082c.1.041.225.1.327.143s.225.082.327.123c.061.02.1.041.164.061s.1.041.164.061c.1.041.2.061.307.1.2.061.409.123.593.164l.552.123c.184.02.348.061.511.082a3.671,3.671,0,0,0,.45.041c.143,0,.266.02.388.02s.225.02.307.02h.409v-.2a.063.063,0,0,1-.041-.02C27.549,128.69,27.508,128.649,27.447,128.629Z" transform="translate(-13.524 -93.955)"/><path class="a" d="M29.194,18.747C29.194,8.382,22.652,0,14.6,0S0,8.382,0,18.747c0,9.486,5.479,17.316,12.594,18.563a.679.679,0,0,0-.286.552L11.224,40.95c0,.47.532.838,1.186.838h.981a12.9,12.9,0,0,1-1.922,3.68C10.447,47,9.486,48.453,9.547,50.211c.1,2.7,2.188,4.171,4.191,5.561,2.085,1.472,4.048,2.842,4.028,5.561-.02,2.821-1.738,4.436-3.394,5.97-1.9,1.779-3.864,3.619-2.29,7.074l.9-.409c-1.268-2.8.2-4.171,2.065-5.929,1.717-1.615,3.66-3.435,3.7-6.685.041-3.23-2.351-4.907-4.457-6.379-1.9-1.329-3.68-2.576-3.762-4.8-.061-1.431.818-2.76,1.758-4.15a13.458,13.458,0,0,0,2.106-4.232h1.37c.654,0,1.186-.368,1.186-.838l-1.084-3.087a.66.66,0,0,0-.164-.429C23.266,36.677,29.194,28.6,29.194,18.747ZM14.107,34.939H13.7a1.765,1.765,0,0,1-.307-.02c-.123,0-.245-.02-.388-.02a3.062,3.062,0,0,0-.45-.041c-.164-.02-.327-.041-.511-.082a5.344,5.344,0,0,1-.552-.123c-.184-.041-.388-.1-.593-.164-.1-.041-.2-.061-.307-.1-.061-.02-.1-.041-.164-.061s-.1-.041-.164-.061c-.1-.041-.2-.082-.327-.123-.1-.041-.2-.1-.327-.143a.612.612,0,0,1-.164-.082c-.061-.02-.1-.061-.164-.082-.1-.061-.225-.1-.327-.164a15.319,15.319,0,0,1-1.288-.838,14.413,14.413,0,0,1-1.186-1.043c-.368-.388-.7-.8-1.022-1.206a9.739,9.739,0,0,1-.8-1.308,10.194,10.194,0,0,1-.572-1.308,1.532,1.532,0,0,1-.1-.327c-.041-.1-.061-.2-.1-.307-.061-.2-.123-.409-.164-.593-.082-.388-.143-.736-.184-1.063a3.672,3.672,0,0,1-.041-.45c0-.143-.02-.266-.02-.388v-.716H3.66a.063.063,0,0,0,.02.041,1,1,0,0,1,.061.143,1.992,1.992,0,0,0,.1.225,1,1,0,0,1,.061.143.512.512,0,0,0,.082.143c.061.1.1.225.164.348s.123.266.2.409c.143.286.286.593.47.92.082.164.184.327.286.491s.184.348.307.511a3.026,3.026,0,0,1,.164.266,1.159,1.159,0,0,1,.164.266c.02.041.061.082.082.123s.061.082.082.123c.061.082.123.184.184.266a2.99,2.99,0,0,1,.184.266l.1.123.1.123c.123.164.266.348.409.511.286.327.572.675.879.981a2.45,2.45,0,0,1,.225.245,2.451,2.451,0,0,0,.245.225l.123.1.123.123c.082.082.164.143.245.225.082.061.164.143.245.2a2.166,2.166,0,0,0,.245.2c.164.143.348.266.511.388a2.99,2.99,0,0,0,.266.184,2.991,2.991,0,0,0,.266.184l.245.184a3.026,3.026,0,0,0,.266.164c.164.123.348.2.511.307s.327.184.491.286c.327.184.634.348.9.47a2.331,2.331,0,0,1,.388.2c.123.061.245.1.348.164.2.1.388.184.511.245.061.02.1.061.143.061.02.041.041.041.041.041Z"/></g><g transform="matrix(0.966, -0.259, 0.259, 0.966, 148.608, 733.005)"><path class="d" d="M7.691,7.751c-.09-.045-.211-.105-.376-.181-.075-.045-.166-.075-.256-.12A2.619,2.619,0,0,1,6.773,7.3c-.211-.105-.436-.226-.662-.346-.12-.075-.241-.135-.361-.211s-.241-.151-.376-.226a2.228,2.228,0,0,0-.2-.12L5,6.261a2.2,2.2,0,0,0-.2-.135,2.2,2.2,0,0,0-.2-.135c-.12-.105-.256-.2-.376-.286-.06-.045-.12-.105-.181-.151A1.6,1.6,0,0,0,3.868,5.4c-.06-.06-.12-.105-.181-.166l-.09-.09-.09-.075c-.06-.06-.12-.105-.181-.166a1.8,1.8,0,0,1-.166-.181C2.935,4.5,2.724,4.244,2.514,4c-.105-.12-.2-.256-.3-.376l-.075-.09-.075-.09a2.2,2.2,0,0,1-.135-.2c-.045-.06-.09-.135-.135-.2-.015-.03-.045-.06-.06-.09s-.045-.06-.06-.09a.854.854,0,0,1-.12-.2c-.045-.06-.075-.135-.12-.2-.075-.12-.151-.256-.226-.376s-.135-.241-.211-.361C.858,1.505.753,1.279.647,1.069A2.807,2.807,0,0,0,.5.768C.452.677.421.587.376.512A.243.243,0,0,0,.316.406C.3.376.286.331.271.3A1.466,1.466,0,0,1,.2.135C.181.09.151.06.151.03L.135,0H0V.527c0,.09.015.181.015.286.015.105.015.211.03.331.03.241.075.5.135.783.03.135.075.286.12.436.03.075.045.151.075.226s.045.151.075.241a6.689,6.689,0,0,0,.421.963,8.256,8.256,0,0,0,.587.963,6.026,6.026,0,0,0,.753.888,8.387,8.387,0,0,0,.873.768,9.27,9.27,0,0,0,.948.617,1.8,1.8,0,0,0,.241.12c.045.015.075.045.12.06a.45.45,0,0,1,.12.06c.075.03.166.075.241.105s.166.06.241.09c.045.015.075.03.12.045s.075.03.12.045c.075.03.151.045.226.075.151.045.3.09.436.12l.406.09c.135.015.256.045.376.06a2.7,2.7,0,0,0,.331.03c.105,0,.2.015.286.015s.166.015.226.015h.3V7.812A.047.047,0,0,1,7.8,7.8C7.766,7.8,7.736,7.766,7.691,7.751Z" transform="translate(2.559 17.776)"/><path class="a" d="M21.493,13.8C21.493,6.171,16.677,0,10.747,0S0,6.171,0,13.8c0,6.984,4.034,12.748,9.272,13.667a.5.5,0,0,0-.211.406l-.8,2.273c0,.346.391.617.873.617h.722a9.494,9.494,0,0,1-1.415,2.709,6.049,6.049,0,0,0-1.415,3.492c.075,1.987,1.61,3.07,3.086,4.094,1.535,1.084,2.98,2.092,2.965,4.094-.015,2.077-1.279,3.266-2.5,4.395-1.4,1.309-2.845,2.664-1.686,5.208l.662-.3c-.933-2.062.151-3.07,1.52-4.365,1.264-1.189,2.694-2.529,2.724-4.922.03-2.378-1.731-3.612-3.281-4.7-1.4-.978-2.709-1.9-2.769-3.537a5.425,5.425,0,0,1,1.294-3.055,9.908,9.908,0,0,0,1.55-3.116H11.6c.482,0,.873-.271.873-.617l-.8-2.273a.486.486,0,0,0-.12-.316C17.128,27,21.493,21.057,21.493,13.8ZM10.385,25.723h-.3a1.3,1.3,0,0,1-.226-.015c-.09,0-.181-.015-.286-.015a2.255,2.255,0,0,0-.331-.03c-.12-.015-.241-.03-.376-.06a3.935,3.935,0,0,1-.406-.09c-.135-.03-.286-.075-.436-.12-.075-.03-.151-.045-.226-.075-.045-.015-.075-.03-.12-.045s-.075-.03-.12-.045c-.075-.03-.151-.06-.241-.09-.075-.03-.151-.075-.241-.105a.451.451,0,0,1-.12-.06c-.045-.015-.075-.045-.12-.06-.075-.045-.166-.075-.241-.12a11.277,11.277,0,0,1-.948-.617,10.61,10.61,0,0,1-.873-.768c-.271-.286-.512-.587-.753-.888a7.17,7.17,0,0,1-.587-.963,7.505,7.505,0,0,1-.421-.963,1.128,1.128,0,0,1-.075-.241c-.03-.075-.045-.151-.075-.226-.045-.151-.09-.3-.12-.436-.06-.286-.105-.542-.135-.783a2.7,2.7,0,0,1-.03-.331c0-.105-.015-.2-.015-.286v-.527h.135a.047.047,0,0,0,.015.03.734.734,0,0,1,.045.105,1.467,1.467,0,0,0,.075.166.734.734,0,0,1,.045.105.377.377,0,0,0,.06.105c.045.075.075.166.12.256s.09.2.151.3c.105.211.211.436.346.677.06.12.135.241.211.361s.135.256.226.376a2.228,2.228,0,0,1,.12.2.853.853,0,0,1,.12.2c.015.03.045.06.06.09s.045.06.06.09c.045.06.09.135.135.2a2.2,2.2,0,0,1,.135.2l.075.09.075.09c.09.12.2.256.3.376.211.241.421.5.647.722a1.8,1.8,0,0,1,.166.181,1.8,1.8,0,0,0,.181.166l.09.075.09.09c.06.06.12.105.181.166.06.045.12.105.181.151a1.6,1.6,0,0,0,.181.151c.12.105.256.2.376.286a2.2,2.2,0,0,0,.2.135,2.2,2.2,0,0,0,.2.135l.181.135a2.229,2.229,0,0,0,.2.12c.12.09.256.151.376.226s.241.135.361.211c.241.135.467.256.662.346a1.716,1.716,0,0,1,.286.151c.09.045.181.075.256.12.151.075.286.135.376.181.045.015.075.045.105.045.015.03.03.03.03.03Z"/></g><ellipse class="e" cx="143.983" cy="6.666" rx="143.983" ry="6.666" transform="translate(78 903.638)"/></g></svg>