<svg xmlns="http://www.w3.org/2000/svg" viewBox="-2230 120 210 210"><path class="a" d="M105,0A105,105,0,1,0,210,105,105.031,105.031,0,0,0,105,0Zm50.946,142.507H136.991V101.49q0-8.574-1.805-12.937c-1.2-2.858-3.911-4.312-8.073-4.312-3.41,0-6.117.9-8.073,2.758a16.837,16.837,0,0,0-4.463,7.572v47.837H95.623V102.744c0-6.719-.652-11.483-1.905-14.291s-3.911-4.212-7.872-4.212a11.685,11.685,0,0,0-8.023,2.708,16.924,16.924,0,0,0-4.663,6.92v48.589H54.2V69.549H68.947l2.206,9.628h.6A34.033,34.033,0,0,1,80.279,71c3.46-2.357,7.923-3.51,13.338-3.51q6.995,0,11.433,2.858c2.958,1.905,5.265,5.064,6.92,9.577a26.153,26.153,0,0,1,8.625-9.026,22.913,22.913,0,0,1,12.686-3.36A33.329,33.329,0,0,1,143.711,69a14.468,14.468,0,0,1,7.02,5.014,24.111,24.111,0,0,1,4.011,9.577,74.405,74.405,0,0,1,1.3,15.193v43.725Z" transform="translate(-2230 120)"/></svg>